# Blender 4.2.3 LTS
# www.blender.org
mtllib stairs.mtl
o Cube.002
v -35.977066 8.721376 3.850580
v -35.977066 10.757278 3.850580
v -35.977066 8.721376 -3.850580
v -35.977066 10.757278 -3.850580
v -32.471592 8.405367 3.850580
v -33.291199 8.721376 3.850580
v -32.471592 8.405367 -3.850580
v -33.291199 8.721376 -3.850580
v -32.471592 9.080501 3.850580
v -34.950939 10.757278 3.850580
v -33.298042 9.080501 3.850580
v -33.298042 9.627460 3.850580
v -34.124493 9.627460 3.850580
v -34.124493 10.174417 3.850580
v -34.950939 10.174417 3.850580
v -34.950939 10.757278 -3.850580
v -32.471592 9.080501 -3.850580
v -34.950939 10.174417 -3.850580
v -34.124493 10.174417 -3.850580
v -34.124493 9.627460 -3.850580
v -33.298042 9.627460 -3.850580
v -33.298042 9.080501 -3.850580
v -32.471592 7.773084 -3.850580
v -33.291199 7.773084 -3.850580
v -32.471592 7.773084 3.850580
v -33.291199 7.773084 3.850580
v -31.696028 8.405367 3.850580
v -31.696028 8.405367 -3.850580
v -31.696028 7.773084 3.850580
v -31.696028 7.773084 -3.850580
v -35.977066 8.721376 0.000000
v -35.977066 10.757278 0.000000
v -32.471592 8.405367 0.000000
v -32.471592 7.773084 0.000000
v -33.291199 8.721376 0.000000
v -34.950939 10.757278 0.000000
v -34.950939 10.174417 0.000000
v -34.124493 10.174417 0.000000
v -34.124493 9.627460 0.000000
v -33.298042 9.627460 0.000000
v -33.298042 9.080501 0.000000
v -32.471592 9.080501 0.000000
v -33.291199 7.773084 0.000000
v -31.696028 8.405367 0.000000
v -31.696028 7.773084 0.000000
vn -1.0000 -0.0000 -0.0000
vn -0.0000 -1.0000 -0.0000
vn -0.0000 -0.0000 1.0000
vn -0.0000 -0.0000 -1.0000
vn 1.0000 -0.0000 -0.0000
vn -0.0000 1.0000 -0.0000
vt 0.994686 0.546648
vt 0.648730 0.580792
vt 0.764690 0.336160
vt 0.787654 0.327903
vt 0.005314 0.563774
vt 0.005314 0.094944
vt 0.255808 0.288870
vt 0.226984 0.351614
vt 0.268901 0.269225
vt 0.274836 0.277438
vt 0.266087 0.296222
vt 0.276961 0.309151
vt 0.268364 0.328906
vt 0.273444 0.343287
vt 0.260636 0.356657
vt 0.259513 0.371050
vt 0.246492 0.374492
vt 0.758212 0.331105
vt 0.760123 0.319566
vt 0.751093 0.305348
vt 0.759456 0.291101
vt 0.755580 0.268614
vt 0.772136 0.256259
vt 0.767128 0.232310
vt 0.776845 0.225536
vt 0.786115 0.251137
vt 0.994686 0.148584
vt 0.792809 0.226406
vt 0.951119 0.078649
vt 0.442263 0.133535
vt 0.470873 0.177796
vt 0.410273 0.507910
vt 0.443023 0.464530
vt 0.472049 0.408424
vt 0.485058 0.358827
vt 0.492180 0.294877
vt 0.486711 0.242445
vt 0.323318 0.584072
vt 0.136135 0.029538
vt 0.242150 0.005314
vt 0.261515 0.262309
vt 0.254334 0.266280
vt 0.270365 0.259530
vt 0.402102 0.080782
vt 0.786377 0.219244
vt 0.267151 0.257263
vt 0.342374 0.037682
vt 0.778811 0.213903
vt 0.782175 0.213692
vt 0.885382 0.037492
vt 0.820149 0.010421
vt 0.753566 0.005314
vt 0.667517 0.028369
vt 0.536786 0.477741
vt 0.552192 0.145843
vt 0.611882 0.073737
vt 0.534022 0.182709
vt 0.505047 0.277640
vt 0.502809 0.321532
vt 0.515592 0.429365
s 0
usemtl Material.001
f 31/1/1 32/2/1 4/3/1 3/4/1
f 31/5/2 35/6/2 6/7/2 1/8/2
f 5/9/3 9/10/3 11/11/3 12/12/3 13/13/3 14/14/3 15/15/3 10/16/3 2/17/3 1/8/3 6/7/3
f 3/4/4 4/3/4 16/18/4 18/19/4 19/20/4 20/21/4 21/22/4 22/23/4 17/24/4 7/25/4 8/26/4
f 35/27/1 8/26/1 24/28/1 43/29/1
f 33/30/5 42/31/5 9/10/5 5/9/5
f 36/32/5 10/16/5 15/15/5 37/33/5
f 37/33/6 15/15/6 14/14/6 38/34/6
f 38/34/5 14/14/5 13/13/5 39/35/5
f 39/35/6 13/13/6 12/12/6 40/36/6
f 40/36/5 12/12/5 11/11/5 41/37/5
f 41/37/6 11/11/6 9/10/6 42/31/6
f 36/32/6 32/38/6 2/17/6 10/16/6
f 43/39/2 34/40/2 25/41/2 26/42/2
f 33/30/6 5/9/6 27/43/6 44/44/6
f 5/9/3 6/7/3 26/42/3 25/41/3
f 8/26/4 7/25/4 23/45/4 24/28/4
f 44/44/5 27/43/5 29/46/5 45/47/5
f 23/45/4 7/25/4 28/48/4 30/49/4
f 34/50/2 23/45/2 30/49/2 45/51/2
f 5/9/3 25/41/3 29/46/3 27/43/3
f 25/41/2 34/40/2 45/47/2 29/46/2
f 28/48/5 44/52/5 45/51/5 30/49/5
f 7/25/6 33/53/6 44/52/6 28/48/6
f 24/28/2 23/45/2 34/50/2 43/29/2
f 16/18/6 4/3/6 32/2/6 36/54/6
f 22/23/6 41/55/6 42/56/6 17/24/6
f 21/22/5 40/57/5 41/55/5 22/23/5
f 20/21/6 39/58/6 40/57/6 21/22/6
f 19/20/5 38/59/5 39/58/5 20/21/5
f 18/19/6 37/60/6 38/59/6 19/20/6
f 16/18/5 36/54/5 37/60/5 18/19/5
f 7/25/5 17/24/5 42/56/5 33/53/5
f 6/7/1 35/6/1 43/39/1 26/42/1
f 3/4/2 8/26/2 35/27/2 31/1/2
f 1/8/1 2/17/1 32/38/1 31/5/1
