# Blender 4.2.3 LTS
# www.blender.org
mtllib Chair.mtl
o Chair
v -0.490116 -0.124533 -3.849209
v -0.490116 1.232404 -3.849209
v -0.490116 -0.124533 -3.969681
v -0.490116 1.232404 -3.969681
v -0.369644 -0.124533 -3.849209
v -0.369644 1.232404 -3.849209
v -0.369644 -0.124533 -3.969681
v -0.369644 1.232404 -3.969681
v -0.531065 1.183846 -2.795747
v -0.472070 1.331458 -2.854743
v -0.531065 1.183846 -3.847004
v -0.472070 1.331458 -3.788009
v 0.520192 1.183846 -2.795747
v 0.461196 1.331458 -2.854743
v 0.520192 1.183846 -3.847004
v 0.461196 1.331458 -3.788009
v -0.531065 1.331458 -4.005116
v -0.531065 1.183846 -4.005116
v 0.520192 1.183846 -4.005116
v 0.520192 1.331458 -4.005116
v -0.439152 3.442481 -3.847004
v 0.428279 3.442481 -3.847004
v -0.531065 3.547585 -4.005116
v 0.520192 3.547585 -4.005116
v -0.531065 1.331458 -2.795747
v -0.439152 1.396156 -3.847004
v 0.428279 1.396156 -3.847004
v 0.520192 1.331458 -2.795747
v -0.472070 1.370889 -2.854743
v -0.472070 1.370889 -3.788009
v 0.461196 1.370889 -3.788009
v 0.461196 1.370889 -2.854743
v -0.531065 1.331458 -3.847004
v 0.520192 1.331458 -3.847004
v -0.531065 3.547585 -3.847004
v 0.520192 3.547585 -3.847004
v -0.439152 1.396156 -3.819668
v 0.428279 1.396156 -3.819668
v -0.439152 3.442481 -3.819668
v 0.428279 3.442481 -3.819668
v -0.501083 -0.124533 -2.842430
v -0.501083 1.232404 -2.842430
v -0.501083 -0.124533 -2.962901
v -0.501083 1.232404 -2.962901
v -0.380612 -0.124533 -2.842430
v -0.380612 1.232404 -2.842430
v -0.380612 -0.124533 -2.962901
v -0.380612 1.232404 -2.962901
v 0.346466 -0.124533 -2.842430
v 0.346466 1.232404 -2.842430
v 0.346466 -0.124533 -2.962901
v 0.346466 1.232404 -2.962901
v 0.466937 -0.124533 -2.842430
v 0.466937 1.232404 -2.842430
v 0.466937 -0.124533 -2.962901
v 0.466937 1.232404 -2.962901
v 0.346466 -0.124533 -3.851754
v 0.346466 1.232404 -3.851754
v 0.346466 -0.124533 -3.972226
v 0.346466 1.232404 -3.972226
v 0.466937 -0.124533 -3.851754
v 0.466937 1.232404 -3.851754
v 0.466937 -0.124533 -3.972226
v 0.466937 1.232404 -3.972226
vn -1.0000 -0.0000 -0.0000
vn -0.0000 -0.0000 -1.0000
vn 1.0000 -0.0000 -0.0000
vn -0.0000 -0.0000 1.0000
vn -0.0000 -1.0000 -0.0000
vn -0.0000 1.0000 -0.0000
vt 0.375000 0.000000
vt 0.625000 0.000000
vt 0.625000 0.250000
vt 0.375000 0.250000
vt 0.625000 0.500000
vt 0.375000 0.500000
vt 0.625000 0.750000
vt 0.375000 0.750000
vt 0.625000 1.000000
vt 0.375000 1.000000
vt 0.125000 0.500000
vt 0.125000 0.750000
vt 0.639030 0.735970
vt 0.639030 0.514030
vt 0.875000 0.500000
vt 0.646858 0.500000
vt 0.860970 0.735970
vt 0.860970 0.514030
vt 0.875000 0.750000
vt 0.853142 0.500000
s 0
f 1/1/1 2/2/1 4/3/1 3/4/1
f 3/4/2 4/3/2 8/5/2 7/6/2
f 7/6/3 8/5/3 6/7/3 5/8/3
f 5/8/4 6/7/4 2/9/4 1/10/4
f 3/11/5 7/6/5 5/8/5 1/12/5
f 9/1/1 25/2/1 33/3/1 11/4/1
f 34/5/3 15/6/3 19/6/3 20/5/3
f 15/6/3 34/5/3 28/7/3 13/8/3
f 13/8/4 28/7/4 25/9/4 9/10/4
f 11/11/5 15/6/5 13/8/5 9/12/5
f 14/13/3 16/14/3 31/14/3 32/13/3
f 18/4/2 17/3/2 20/5/2 19/6/2
f 15/6/5 11/11/5 18/11/5 19/6/5
f 17/3/1 33/3/1 35/3/1 23/3/1
f 11/4/1 33/3/1 17/3/1 18/4/1
f 35/15/6 36/5/6 24/5/6 23/15/6
f 34/5/3 20/5/3 24/5/3 36/5/3
f 27/16/3 22/16/3 40/16/3 38/16/3
f 20/5/2 17/3/2 23/3/2 24/5/2
f 10/17/6 12/18/6 33/15/6 25/19/6
f 12/18/6 16/14/6 34/5/6 33/15/6
f 16/14/6 14/13/6 28/7/6 34/5/6
f 14/13/6 10/17/6 25/19/6 28/7/6
f 31/14/6 30/18/6 29/17/6 32/13/6
f 12/18/1 10/17/1 29/17/1 30/18/1
f 10/17/4 14/13/4 32/13/4 29/17/4
f 16/14/2 12/18/2 30/18/2 31/14/2
f 27/16/4 26/20/4 33/15/4 34/5/4
f 21/20/4 22/16/4 36/5/4 35/15/4
f 26/20/4 21/20/4 35/15/4 33/15/4
f 22/16/4 27/16/4 34/5/4 36/5/4
f 37/20/4 38/16/4 40/16/4 39/20/4
f 22/16/6 21/20/6 39/20/6 40/16/6
f 21/20/1 26/20/1 37/20/1 39/20/1
f 26/20/5 27/16/5 38/16/5 37/20/5
f 41/1/1 42/2/1 44/3/1 43/4/1
f 43/4/2 44/3/2 48/5/2 47/6/2
f 47/6/3 48/5/3 46/7/3 45/8/3
f 45/8/4 46/7/4 42/9/4 41/10/4
f 43/11/5 47/6/5 45/8/5 41/12/5
f 49/1/1 50/2/1 52/3/1 51/4/1
f 51/4/2 52/3/2 56/5/2 55/6/2
f 55/6/3 56/5/3 54/7/3 53/8/3
f 53/8/4 54/7/4 50/9/4 49/10/4
f 51/11/5 55/6/5 53/8/5 49/12/5
f 57/1/1 58/2/1 60/3/1 59/4/1
f 59/4/2 60/3/2 64/5/2 63/6/2
f 63/6/3 64/5/3 62/7/3 61/8/3
f 61/8/4 62/7/4 58/9/4 57/10/4
f 59/11/5 63/6/5 61/8/5 57/12/5
