# Blender 4.3.0
# www.blender.org
mtllib Base.mtl
o Base
v -54.353298 7.773085 16.612999
v -51.434586 8.721376 13.927412
v -54.353298 7.773085 -15.838588
v -51.434586 8.721376 -13.153000
v -33.058834 7.773085 16.612999
v -35.977547 8.721376 13.927412
v -33.058834 7.773085 -15.838588
v -35.977547 8.721376 -13.184019
v -54.353298 8.721376 16.612999
v -54.353298 8.721376 -15.838588
v -33.058834 8.721376 -15.838588
v -33.058834 8.721376 16.612999
v -51.434586 10.434523 13.927412
v -51.434586 10.434523 -13.153000
v -35.977547 10.269289 -13.184019
v -35.977547 10.269289 13.927412
v -34.565559 7.773085 -15.838588
v -34.565559 8.721376 -15.838588
v -34.565559 7.773085 16.612999
v -34.565559 8.721376 16.612999
v -37.071236 8.721376 -13.184019
v -37.071236 8.721376 13.927412
v -37.071236 10.434523 -13.184019
v -37.071236 10.434523 13.927412
v -37.071236 10.758506 -13.184019
v -35.977547 10.758506 -13.184019
v -35.977547 10.269289 15.036036
v -35.977547 8.721376 15.036036
v -37.071236 8.721376 15.036036
v -37.071236 10.269289 15.036036
v -52.698826 10.269289 13.927412
v -52.698826 10.269289 15.036036
v -52.698826 8.721376 13.927412
v -52.698826 8.721376 15.036036
v -51.480099 8.721376 13.927412
v -51.480099 10.269289 13.927412
v -51.480099 10.269289 15.036036
v -51.480099 8.721376 15.036036
v -52.698826 8.721376 -14.405003
v -52.698826 10.269289 -14.405003
v -51.480099 8.721376 -14.405003
v -51.480099 10.269289 -14.405003
v -51.480099 8.721376 -13.177062
v -51.480099 10.269289 -13.177062
v -52.698826 10.269289 -13.177062
v -52.698826 8.721376 -13.177062
v -35.976551 8.721376 -13.177062
v -35.976551 8.721376 -14.405003
v -35.976551 10.269289 -14.405003
v -35.976551 10.269289 -13.177062
vn -1.0000 -0.0000 -0.0000
vn -0.0000 -0.0000 -1.0000
vn 1.0000 -0.0000 -0.0000
vn -0.0000 -0.0000 1.0000
vn -0.0000 -1.0000 -0.0000
vn -0.0000 1.0000 -0.0000
vn -0.0022 -0.0000 -1.0000
vt 0.926809 1.454518
vt 0.697053 1.454518
vt 0.697053 -0.882425
vt 0.926809 -0.882425
vt 0.930161 -0.725657
vt 0.689306 -0.725657
vt 0.689306 -0.892736
vt 0.930161 -0.892736
vt 0.923235 1.467781
vt 0.695181 1.467781
vt 0.695181 -0.899657
vt 0.923235 -0.899657
vt 0.944191 1.293686
vt 0.674225 1.293686
vt 0.674225 -0.872107
vt 0.944191 -0.872107
vt 0.977926 0.465672
vt 0.977926 0.477265
vt 0.814084 0.477265
vt 0.814084 0.465672
vt 0.800183 -1.016827
vt 0.800183 2.143541
vt 0.606933 2.143541
vt 0.606933 -1.016827
vt 0.086888 0.859342
vt 0.913112 0.859342
vt 0.995049 0.995049
vt 0.004951 0.995049
vt 0.914059 0.191510
vt 0.914059 0.140658
vt 0.995049 0.004951
vt 0.995049 0.075007
vt 0.086888 0.140658
vt 0.004951 0.004950
vt 0.086888 0.191509
vt 0.004951 0.075007
vt 0.301633 0.311318
vt 0.164909 0.311318
vt 0.164909 0.015327
vt 0.301633 0.015327
vt 0.799775 -1.023868
vt 0.603504 -1.023868
vt 0.603504 -1.163080
vt 0.799775 -1.163080
vt 0.125840 0.367295
vt 0.015327 0.367295
vt 0.015327 0.071303
vt 0.125840 0.071303
vt 0.134255 0.367295
vt 0.134255 0.099852
vt 0.783430 0.609414
vt 0.672917 0.609414
vt 0.672917 0.313423
vt 0.783430 0.313423
vt 0.977926 0.313423
vt 0.814084 0.313423
vt 0.944191 1.458600
vt 0.674225 1.458599
vt 0.930161 1.468578
vt 0.689306 1.468578
vt 0.125840 0.015327
vt 0.134255 0.015327
vt 0.796638 -0.957805
vt 0.796638 -1.177102
vt 0.607210 -1.177102
vt 0.607210 -0.957805
vt 0.681339 0.840161
vt 0.672924 0.840161
vt 0.672924 0.834563
vt 0.681339 0.834563
vt 0.606933 -1.146059
vt 0.800183 -1.146059
vt 0.603504 2.048944
vt 0.799775 2.048944
vt 0.799775 2.174627
vt 0.603504 2.174627
vt 0.791163 1.921155
vt 0.603986 1.921155
vt 0.603986 -1.173336
vt 0.791163 -1.173337
vt 0.796638 1.931345
vt 0.607210 1.931345
vt 0.607210 2.175715
vt 0.796638 2.175715
vt 0.792203 0.840161
vt 0.792203 0.834563
vt 0.801580 0.834563
vt 0.801580 0.840161
vt 0.126190 0.397948
vt 0.126190 0.693940
vt 0.015327 0.693940
vt 0.015327 0.426497
vt 0.791163 2.164411
vt 0.603986 2.164411
vt 0.792203 0.977006
vt 0.801580 0.977006
vt 0.801580 0.983206
vt 0.792203 0.983206
vt 0.642263 0.313423
vt 0.642263 0.580866
vt 0.505418 0.580866
vt 0.505418 0.313423
vt 0.615398 0.653000
vt 0.793632 0.653000
vt 0.793632 0.837480
vt 0.615398 0.837480
vt 0.672917 0.983206
vt 0.672917 0.977006
vt 0.790178 0.015327
vt 0.790178 0.282770
vt 0.670891 0.282770
vt 0.670891 0.015327
s 0
usemtl Material.004
f 1/1/1 9/2/1 10/3/1 3/4/1
f 17/5/2 18/6/2 11/7/2 7/8/2
f 7/9/3 11/10/3 12/11/3 5/12/3
f 19/13/4 20/14/4 9/15/4 1/16/4
f 17/17/5 7/18/5 5/19/5 19/20/5
f 6/21/3 8/22/3 15/23/3 16/24/3
f 2/25/6 4/26/6 10/27/6 9/28/6
f 21/29/6 8/30/6 11/31/6 18/32/6
f 8/30/6 6/33/6 12/34/6 11/31/6
f 22/35/6 2/25/6 9/28/6 20/36/6
f 4/37/1 2/38/1 13/39/1 14/40/1
f 46/41/1 45/42/1 40/43/1 39/44/1
f 21/45/7 4/46/7 14/47/7 23/48/7
f 8/49/2 21/45/2 23/48/2 15/50/2
f 2/51/4 22/52/4 24/53/4 13/54/4
f 6/33/6 22/35/6 20/36/6 12/34/6
f 4/26/6 21/29/6 18/32/6 10/27/6
f 3/55/5 17/17/5 19/20/5 1/56/5
f 5/57/4 12/58/4 20/14/4 19/13/4
f 3/59/2 10/60/2 18/6/2 17/5/2
f 15/50/2 23/48/2 25/61/2 26/62/2
f 29/63/4 28/64/4 27/65/4 30/66/4
f 22/67/5 6/68/5 28/69/5 29/70/5
f 6/21/3 16/24/3 27/71/3 28/72/3
f 31/73/1 33/74/1 34/75/1 32/76/1
f 41/77/2 42/78/2 49/79/2 48/80/2
f 38/81/4 37/82/4 32/83/4 34/84/4
f 35/85/5 38/86/5 34/87/5 33/88/5
f 22/67/5 29/70/5 38/86/5 35/85/5
f 29/63/4 30/66/4 37/82/4 38/81/4
f 24/89/2 22/90/2 35/91/2 36/92/2
f 42/78/2 41/77/2 39/93/2 40/94/2
f 43/95/5 46/96/5 39/97/5 41/98/5
f 35/85/5 33/88/5 46/96/5 43/95/5
f 36/99/3 35/100/3 43/101/3 44/102/3
f 33/74/1 31/73/1 45/42/1 46/41/1
f 50/103/3 47/104/3 48/105/3 49/106/3
f 43/95/5 41/98/5 48/107/5 47/108/5
f 44/109/4 43/110/4 47/111/4 50/112/4
