# Blender 4.2.3 LTS
# www.blender.org
mtllib counter.mtl
o Cube
v -44.951080 7.773084 -31.783607
v -44.951080 9.639523 -31.783607
v -44.951080 7.773084 -33.083771
v -44.951080 9.639523 -33.083771
v -12.297549 7.773084 -31.783607
v -12.297549 9.639523 -31.783607
v -12.297549 7.773084 -33.083771
v -12.297549 9.639523 -33.083771
v -17.671858 7.773084 -33.083771
v -39.576767 7.773084 -33.083771
v -39.576767 9.639523 -33.083771
v -17.671858 9.639523 -33.083771
v -39.576767 7.773084 -31.783607
v -17.671858 7.773084 -31.783607
v -17.671858 9.639523 -31.783607
v -39.576767 9.639523 -31.783607
v -17.671858 9.639523 -42.869339
v -12.297549 9.639523 -42.869339
v -12.297549 7.773084 -42.869339
v -17.671858 7.773084 -42.869339
v -44.951080 9.639523 -42.689400
v -44.951080 7.773084 -42.689400
v -39.576767 7.773084 -42.689400
v -39.576767 9.639523 -42.689400
v -17.671858 9.920943 -33.083771
v -12.297549 9.920943 -33.083771
v -12.297549 9.920943 -31.783607
v -17.671858 9.920943 -31.783607
v -17.671858 9.920943 -42.869339
v -12.297549 9.920943 -42.869339
v -11.752916 9.639523 -33.083771
v -11.752916 9.639523 -31.783607
v -11.752916 9.639523 -42.869339
v -11.752916 9.920943 -33.083771
v -11.752916 9.920943 -31.783607
v -11.752916 9.920943 -42.869339
v -17.671858 7.773084 -34.306156
v -39.576767 7.773084 -34.306156
v -39.576767 9.639523 -34.306156
v -17.671858 9.639523 -34.306156
v -44.951080 9.819106 -31.783607
v -44.951080 9.819106 -33.083771
v -39.576767 9.819106 -31.783607
v -39.576767 9.819106 -33.083771
v -44.951080 9.819106 -42.689400
v -39.576767 9.819106 -42.689400
v -39.576767 9.639523 -31.556940
v -44.951080 9.639523 -31.556940
v -44.951080 9.819106 -31.556940
v -39.576767 9.819106 -31.556940
v -45.394852 9.639523 -31.783607
v -45.394852 9.639523 -33.083771
v -45.394852 9.819106 -31.783607
v -45.394852 9.639523 -42.689400
v -45.394852 9.819106 -33.083771
v -45.394852 9.819106 -42.689400
v -45.394852 9.639523 -31.556940
v -45.394852 9.819106 -31.556940
vn -1.0000 -0.0000 -0.0000
vn 1.0000 -0.0000 -0.0000
vn -0.0000 -0.0000 1.0000
vn -0.0000 -1.0000 -0.0000
vn -0.0000 1.0000 -0.0000
vn -0.0000 -0.0000 -1.0000
vt 0.375000 0.000000
vt 0.625000 0.000000
vt 0.625000 0.250000
vt 0.375000 0.250000
vt 0.708333 0.500000
vt 0.708333 0.750000
vt 0.375000 0.500000
vt 0.625000 0.500000
vt 0.625000 0.750000
vt 0.375000 0.750000
vt 0.375000 0.916667
vt 0.625000 0.916667
vt 0.625000 1.000000
vt 0.375000 1.000000
vt 0.291667 0.500000
vt 0.291667 0.750000
vt 0.625000 0.416667
vt 0.791667 0.500000
vt 0.791667 0.750000
vt 0.125000 0.500000
vt 0.208333 0.500000
vt 0.208333 0.750000
vt 0.125000 0.750000
vt 0.625000 0.833333
vt 0.375000 0.833333
vt 0.375000 0.416667
vt 0.625000 0.333333
vt 0.375000 0.333333
vt 0.875000 0.500000
vt 0.875000 0.750000
s 0
f 1/1/1 2/2/1 4/3/1 3/4/1
f 12/5/1 15/6/1 28/6/1 25/5/1
f 7/7/2 8/8/2 6/9/2 5/10/2
f 13/11/3 16/12/3 2/13/3 1/14/3
f 9/15/4 7/7/4 5/10/4 14/16/4
f 2/13/4 16/12/4 47/12/4 48/13/4
f 17/17/1 12/17/1 25/17/1 29/17/1
f 12/5/5 11/18/5 16/19/5 15/6/5
f 3/20/4 10/21/4 13/22/4 1/23/4
f 10/21/4 9/15/4 14/16/4 13/22/4
f 5/10/3 6/9/3 15/24/3 14/25/3
f 14/25/3 15/24/3 16/12/3 13/11/3
f 3/4/1 4/3/1 21/3/1 22/4/1
f 9/15/4 10/21/4 38/21/4 37/15/4
f 20/26/6 17/17/6 18/8/6 19/7/6
f 9/26/1 12/17/1 17/17/1 20/26/1
f 7/7/4 9/15/4 20/15/4 19/7/4
f 8/8/2 7/7/2 19/7/2 18/8/2
f 22/4/6 21/3/6 24/27/6 23/28/6
f 2/13/4 48/13/4 57/13/4 51/13/4
f 10/21/4 3/20/4 22/20/4 23/21/4
f 11/27/2 10/28/2 23/28/2 24/27/2
f 25/5/5 26/8/5 30/8/5 29/5/5
f 26/8/5 25/5/5 28/6/5 27/9/5
f 15/24/3 6/9/3 27/9/3 28/24/3
f 30/8/5 26/8/5 34/8/5 36/8/5
f 27/9/3 6/9/3 32/9/3 35/9/3
f 18/8/6 17/17/6 29/17/6 30/8/6
f 31/8/2 33/8/2 36/8/2 34/8/2
f 32/9/2 31/8/2 34/8/2 35/9/2
f 26/8/5 27/9/5 35/9/5 34/8/5
f 18/8/6 30/8/6 36/8/6 33/8/6
f 8/8/4 18/8/4 33/8/4 31/8/4
f 6/9/4 8/8/4 31/8/4 32/9/4
f 38/28/6 39/27/6 40/17/6 37/26/6
f 12/17/2 9/26/2 37/26/2 40/17/2
f 11/18/5 12/5/5 40/5/5 39/18/5
f 10/28/1 11/27/1 39/27/1 38/28/1
f 44/18/5 42/29/5 41/30/5 43/19/5
f 42/29/5 44/18/5 46/18/5 45/29/5
f 11/27/2 24/27/2 46/27/2 44/27/2
f 21/3/4 4/3/4 52/3/4 54/3/4
f 24/27/6 21/3/6 45/3/6 46/27/6
f 16/19/2 11/18/2 44/18/2 43/19/2
f 48/13/3 47/12/3 50/12/3 49/13/3
f 43/19/5 41/30/5 49/30/5 50/19/5
f 16/19/2 43/19/2 50/19/2 47/19/2
f 4/3/4 2/2/4 51/2/4 52/3/4
f 52/3/1 51/2/1 53/2/1 55/3/1
f 54/3/1 52/3/1 55/3/1 56/3/1
f 53/2/1 51/2/1 57/2/1 58/2/1
f 48/13/3 49/13/3 58/13/3 57/13/3
f 45/3/6 21/3/6 54/3/6 56/3/6
f 41/30/5 42/29/5 55/29/5 53/30/5
f 49/30/5 41/30/5 53/30/5 58/30/5
f 42/29/5 45/29/5 56/29/5 55/29/5
