# Blender 4.3.0
# www.blender.org
mtllib CounterTopBase.mtl
o Cube
v -44.951080 7.773084 -31.783607
v -44.951080 9.639523 -31.783607
v -44.951080 7.773084 -33.083771
v -44.951080 9.639523 -33.083771
v -12.297549 7.773084 -31.783607
v -12.297549 9.639523 -31.783607
v -12.297549 7.773084 -33.083771
v -12.297549 9.639523 -33.083771
v -17.671858 7.773084 -33.083771
v -39.576767 7.773084 -33.083771
v -39.576767 9.639523 -33.083771
v -17.671858 9.639523 -33.083771
v -39.576767 7.773084 -31.783607
v -17.671858 7.773084 -31.783607
v -17.671858 9.639523 -31.783607
v -39.576767 9.639523 -31.783607
v -17.671858 9.639523 -42.869339
v -12.297549 9.639523 -42.869339
v -12.297549 7.773084 -42.869339
v -17.671858 7.773084 -42.869339
v -44.951080 9.639523 -42.689400
v -44.951080 7.773084 -42.689400
v -39.576767 7.773084 -42.689400
v -39.576767 9.639523 -42.689400
v -11.752916 9.639523 -33.083771
v -11.752916 9.639523 -31.783607
v -11.752916 9.639523 -42.869339
v -17.671858 7.773084 -34.306156
v -39.576767 7.773084 -34.306156
v -39.576767 9.639523 -34.306156
v -17.671858 9.639523 -34.306156
v -39.576767 9.639523 -31.556940
v -44.951080 9.639523 -31.556940
v -45.394852 9.639523 -31.783607
v -45.394852 9.639523 -33.083771
v -45.394852 9.639523 -42.689400
v -45.394852 9.639523 -31.556940
vn -1.0000 -0.0000 -0.0000
vn 1.0000 -0.0000 -0.0000
vn -0.0000 -0.0000 1.0000
vn -0.0000 -1.0000 -0.0000
vn -0.0000 -0.0000 -1.0000
vt 0.375000 0.000000
vt 0.625000 0.000000
vt 0.625000 0.250000
vt 0.375000 0.250000
vt 0.375000 0.500000
vt 0.625000 0.500000
vt 0.625000 0.750000
vt 0.375000 0.750000
vt 0.375000 0.916667
vt 0.625000 0.916667
vt 0.625000 1.000000
vt 0.375000 1.000000
vt 0.291667 0.500000
vt 0.291667 0.750000
vt 0.125000 0.500000
vt 0.208333 0.500000
vt 0.208333 0.750000
vt 0.125000 0.750000
vt 0.625000 0.833333
vt 0.375000 0.833333
vt 0.375000 0.416667
vt 0.625000 0.416667
vt 0.625000 0.333333
vt 0.375000 0.333333
s 0
usemtl Material.012
f 1/1/1 2/2/1 4/3/1 3/4/1
f 7/5/2 8/6/2 6/7/2 5/8/2
f 13/9/3 16/10/3 2/11/3 1/12/3
f 9/13/4 7/5/4 5/8/4 14/14/4
f 2/11/4 16/10/4 32/10/4 33/11/4
f 3/15/4 10/16/4 13/17/4 1/18/4
f 10/16/4 9/13/4 14/14/4 13/17/4
f 5/8/3 6/7/3 15/19/3 14/20/3
f 14/20/3 15/19/3 16/10/3 13/9/3
f 3/4/1 4/3/1 21/3/1 22/4/1
f 9/13/4 10/16/4 29/16/4 28/13/4
f 20/21/5 17/22/5 18/6/5 19/5/5
f 9/21/1 12/22/1 17/22/1 20/21/1
f 7/5/4 9/13/4 20/13/4 19/5/4
f 8/6/2 7/5/2 19/5/2 18/6/2
f 22/4/5 21/3/5 24/23/5 23/24/5
f 2/11/4 33/11/4 37/11/4 34/11/4
f 10/16/4 3/15/4 22/15/4 23/16/4
f 11/23/2 10/24/2 23/24/2 24/23/2
f 8/6/4 18/6/4 27/6/4 25/6/4
f 6/7/4 8/6/4 25/6/4 26/7/4
f 29/24/5 30/23/5 31/22/5 28/21/5
f 12/22/2 9/21/2 28/21/2 31/22/2
f 10/24/1 11/23/1 30/23/1 29/24/1
f 21/3/4 4/3/4 35/3/4 36/3/4
f 4/3/4 2/2/4 34/2/4 35/3/4
