# Blender 4.3.0
# www.blender.org
mtllib CounterTop.mtl
o Cube.001
v -12.297549 9.639523 -31.783607
v -39.576767 9.639523 -33.083771
v -17.671858 9.639523 -33.083771
v -17.671858 9.639523 -31.783607
v -39.576767 9.639523 -31.783607
v -17.671858 9.639523 -42.869339
v -12.297549 9.639523 -42.869339
v -44.951080 9.639523 -42.689400
v -39.576767 9.639523 -42.689400
v -17.671858 9.920943 -33.083771
v -12.297549 9.920943 -33.083771
v -12.297549 9.920943 -31.783607
v -17.671858 9.920943 -31.783607
v -17.671858 9.920943 -42.869339
v -12.297549 9.920943 -42.869339
v -11.752916 9.639523 -33.083771
v -11.752916 9.639523 -31.783607
v -11.752916 9.639523 -42.869339
v -11.752916 9.920943 -33.083771
v -11.752916 9.920943 -31.783607
v -11.752916 9.920943 -42.869339
v -39.576767 9.639523 -34.306156
v -17.671858 9.639523 -34.306156
v -44.951080 9.819106 -31.783607
v -44.951080 9.819106 -33.083771
v -39.576767 9.819106 -31.783607
v -39.576767 9.819106 -33.083771
v -44.951080 9.819106 -42.689400
v -39.576767 9.819106 -42.689400
v -39.576767 9.639523 -31.556940
v -44.951080 9.639523 -31.556940
v -44.951080 9.819106 -31.556940
v -39.576767 9.819106 -31.556940
v -45.394852 9.639523 -31.783607
v -45.394852 9.639523 -33.083771
v -45.394852 9.819106 -31.783607
v -45.394852 9.639523 -42.689400
v -45.394852 9.819106 -33.083771
v -45.394852 9.819106 -42.689400
v -45.394852 9.639523 -31.556940
v -45.394852 9.819106 -31.556940
vn -1.0000 -0.0000 -0.0000
vn -0.0000 1.0000 -0.0000
vn -0.0000 -0.0000 1.0000
vn -0.0000 -0.0000 -1.0000
vn 1.0000 -0.0000 -0.0000
vt 0.708333 0.500000
vt 0.708333 0.750000
vt 0.625000 0.416667
vt 0.791667 0.500000
vt 0.791667 0.750000
vt 0.625000 0.500000
vt 0.625000 0.750000
vt 0.625000 0.833333
vt 0.875000 0.500000
vt 0.875000 0.750000
vt 0.625000 0.333333
vt 0.625000 0.250000
vt 0.625000 1.000000
vt 0.625000 0.916667
vt 0.625000 0.000000
s 0
usemtl Material.011
f 3/1/1 4/2/1 13/2/1 10/1/1
f 6/3/1 3/3/1 10/3/1 14/3/1
f 3/1/2 2/4/2 5/5/2 4/2/2
f 10/1/2 11/6/2 15/6/2 14/1/2
f 11/6/2 10/1/2 13/2/2 12/7/2
f 4/8/3 1/7/3 12/7/3 13/8/3
f 15/6/2 11/6/2 19/6/2 21/6/2
f 12/7/3 1/7/3 17/7/3 20/7/3
f 7/6/4 6/3/4 14/3/4 15/6/4
f 16/6/5 18/6/5 21/6/5 19/6/5
f 17/7/5 16/6/5 19/6/5 20/7/5
f 11/6/2 12/7/2 20/7/2 19/6/2
f 7/6/4 15/6/4 21/6/4 18/6/4
f 2/4/2 3/1/2 23/1/2 22/4/2
f 27/4/2 25/9/2 24/10/2 26/5/2
f 25/9/2 27/4/2 29/4/2 28/9/2
f 2/11/5 9/11/5 29/11/5 27/11/5
f 9/11/4 8/12/4 28/12/4 29/11/4
f 5/5/5 2/4/5 27/4/5 26/5/5
f 31/13/3 30/14/3 33/14/3 32/13/3
f 5/5/5 26/5/5 33/5/5 30/5/5
f 35/12/1 34/15/1 36/15/1 38/12/1
f 37/12/1 35/12/1 38/12/1 39/12/1
f 36/15/1 34/15/1 40/15/1 41/15/1
f 31/13/3 32/13/3 41/13/3 40/13/3
f 28/12/4 8/12/4 37/12/4 39/12/4
f 24/10/2 25/9/2 38/9/2 36/10/2
f 25/9/2 28/9/2 39/9/2 38/9/2
f 24/10/2 32/13/2 33/14/2 26/5/2
f 36/10/2 41/13/2 32/13/2 24/10/2
