# Blender 4.3.0
# www.blender.org
mtllib fridge.mtl
o Cube.003
v -35.141167 7.773084 -40.201527
v -35.141167 15.039592 -40.201527
v -35.141167 7.773084 -42.768803
v -35.141167 15.039592 -42.768803
v -30.029127 7.773084 -40.201527
v -30.029127 15.039592 -40.201527
v -30.029127 7.773084 -42.768803
v -30.029127 15.039592 -42.768803
v -35.215172 15.039592 -40.111542
v -35.215172 15.039592 -42.858788
v -29.955124 15.039592 -42.858788
v -29.955124 15.039592 -40.111542
v -35.215172 15.524971 -40.111542
v -35.215172 15.524971 -42.858788
v -29.955124 15.524971 -42.858788
v -29.955124 15.524971 -40.111542
v -35.141167 10.369178 -40.201527
v -35.141167 10.369178 -42.768803
v -30.029127 10.369178 -42.768803
v -30.029127 10.369178 -40.201527
v -32.585148 7.773084 -42.768803
v -32.585148 15.039592 -42.768803
v -32.585148 7.773084 -40.201527
v -32.585148 15.039592 -40.201527
v -32.585148 15.039592 -42.858788
v -32.585148 15.039592 -40.111542
v -32.585148 15.524971 -42.858788
v -32.585148 15.524971 -40.111542
v -32.585148 10.369178 -40.201527
v -32.585148 10.369178 -42.768803
v -35.141167 10.378857 -40.201527
v -35.141167 10.378857 -42.768803
v -30.029127 10.378857 -42.768803
v -30.029127 10.378857 -40.201527
v -32.585148 10.378857 -40.201527
v -32.585148 10.378857 -42.768803
v -35.061504 10.378706 -42.728794
v -35.061504 10.369328 -42.728794
v -30.108793 10.378706 -42.728794
v -30.108793 10.369328 -42.728794
v -30.108793 10.378706 -40.241535
v -30.108793 10.369328 -40.241535
v -32.585148 10.369328 -40.241535
v -35.061504 10.369328 -40.241535
v -32.585148 10.369328 -42.728794
v -32.585148 10.378706 -40.241535
v -32.585148 10.378706 -42.728794
v -35.061504 10.378706 -40.241535
v -35.141167 15.029218 -40.201527
v -35.141167 15.029218 -42.768803
v -30.029127 15.029218 -42.768803
v -30.029127 15.029218 -40.201527
v -32.585148 15.029218 -40.201527
v -32.585148 15.029218 -42.768803
v -34.688519 15.030136 -40.428848
v -34.688519 15.038673 -40.428848
v -34.688519 15.038673 -42.541481
v -32.585148 15.038673 -42.541481
v -30.481777 15.038673 -42.541481
v -30.481777 15.038673 -40.428848
v -32.585148 15.038673 -40.428848
v -34.688519 15.030136 -42.541481
v -30.481777 15.030136 -42.541481
v -30.481777 15.030136 -40.428848
v -32.585148 15.030136 -40.428848
v -32.585148 15.030136 -42.541481
vn -0.0020 1.0000 -0.0000
vn -0.0000 -1.0000 0.0040
vn -0.0000 1.0000 0.0040
vn -0.0000 1.0000 -0.0040
vn -0.0000 -1.0000 -0.0000
vn -0.0000 -0.0000 -1.0000
vn -0.0000 1.0000 -0.0000
vn 1.0000 -0.0000 -0.0000
vn -1.0000 -0.0000 -0.0000
vn -0.0000 -0.0000 1.0000
vn -0.0000 -1.0000 -0.0040
vn -0.0000 -1.0000 -0.0038
vn -0.0000 1.0000 -0.0038
vn 0.0019 -1.0000 -0.0000
vn -0.0000 1.0000 0.0038
vn -0.0000 -1.0000 0.0038
vn -0.0019 1.0000 -0.0000
vn -0.0019 -1.0000 -0.0000
vn 0.0019 1.0000 -0.0000
vn 0.0020 -1.0000 -0.0000
vn -0.0020 -1.0000 -0.0000
vn 0.0020 1.0000 -0.0000
vt 0.623817 0.250000
vt 0.623817 0.000000
vt 0.625000 0.875000
vt 0.625000 1.000000
vt 0.623817 0.875000
vt 0.623817 0.750000
vt 0.623817 0.500000
vt 0.623817 0.375000
vt 0.250000 0.500000
vt 0.375000 0.500000
vt 0.375000 0.750000
vt 0.250000 0.750000
vt 0.625000 0.250000
vt 0.625000 0.000000
vt 0.625000 0.375000
vt 0.625000 0.750000
vt 0.625000 0.500000
vt 0.750000 0.500000
vt 0.875000 0.500000
vt 0.875000 0.750000
vt 0.750000 0.750000
vt 0.375000 0.875000
vt 0.464317 0.875000
vt 0.464317 1.000000
vt 0.375000 1.000000
vt 0.464317 0.500000
vt 0.464317 0.750000
vt 0.375000 0.375000
vt 0.464317 0.375000
vt 0.375000 0.000000
vt 0.464317 0.000000
vt 0.464317 0.250000
vt 0.375000 0.250000
vt 0.125000 0.500000
vt 0.125000 0.750000
vt 0.464650 0.250000
vt 0.464650 0.375000
vt 0.464650 0.500000
vt 0.464650 0.750000
vt 0.464650 0.875000
vt 0.464650 1.000000
vt 0.464650 0.000000
vt 0.623817 1.000000
s 0
usemtl Material.009
f 50/1/1 49/2/1 55/2/1 62/1/1
f 24/3/2 2/4/2 56/4/2 61/3/2
f 53/5/3 52/6/3 64/6/3 65/5/3
f 51/7/4 54/8/4 66/8/4 63/7/4
f 21/9/5 7/10/5 5/11/5 23/12/5
f 4/13/5 2/14/5 9/14/5 10/13/5
f 25/15/6 10/13/6 14/13/6 27/15/6
f 24/3/5 6/16/5 12/16/5 26/3/5
f 22/15/5 4/13/5 10/13/5 25/15/5
f 6/16/5 8/17/5 11/17/5 12/16/5
f 27/18/7 14/19/7 13/20/7 28/21/7
f 12/16/8 11/17/8 15/17/8 16/16/8
f 10/13/9 9/14/9 13/14/9 14/13/9
f 26/3/10 12/16/10 16/16/10 28/3/10
f 23/22/10 29/23/10 17/24/10 1/25/10
f 7/10/8 19/26/8 20/27/8 5/11/8
f 21/28/6 30/29/6 19/26/6 7/10/6
f 1/30/9 17/31/9 18/32/9 3/33/9
f 3/33/6 18/32/6 30/29/6 21/28/6
f 5/11/10 20/27/10 29/23/10 23/22/10
f 9/4/10 26/3/10 28/3/10 13/4/10
f 15/17/7 27/18/7 28/21/7 16/16/7
f 8/17/5 22/15/5 25/15/5 11/17/5
f 2/4/5 24/3/5 26/3/5 9/4/5
f 11/17/6 25/15/6 27/15/6 15/17/6
f 3/34/5 21/9/5 23/12/5 1/35/5
f 4/13/11 22/15/11 58/15/11 57/13/11
f 54/8/4 50/1/4 62/1/4 66/8/4
f 32/36/12 36/37/12 47/37/12 37/36/12
f 30/29/13 18/32/13 38/32/13 45/29/13
f 33/38/14 34/39/14 41/39/14 39/38/14
f 19/26/13 30/29/13 45/29/13 40/26/13
f 29/23/15 20/27/15 42/27/15 43/23/15
f 35/40/16 31/41/16 48/41/16 46/40/16
f 38/32/6 37/36/6 47/37/6 45/29/6
f 42/27/10 41/39/10 46/40/10 43/23/10
f 43/23/10 46/40/10 48/41/10 44/24/10
f 40/26/8 39/38/8 41/39/8 42/27/8
f 45/29/6 47/37/6 39/38/6 40/26/6
f 44/31/9 48/42/9 37/36/9 38/32/9
f 18/32/17 17/31/17 44/31/17 38/32/17
f 36/37/12 33/38/12 39/38/12 47/37/12
f 17/24/15 29/23/15 43/23/15 44/24/15
f 34/39/16 35/40/16 46/40/16 41/39/16
f 31/42/18 32/36/18 37/36/18 48/42/18
f 20/27/19 19/26/19 40/26/19 42/27/19
f 32/36/6 50/1/6 54/8/6 36/37/6
f 34/39/10 52/6/10 53/5/10 35/40/10
f 35/40/10 53/5/10 49/43/10 31/41/10
f 33/38/8 51/7/8 52/6/8 34/39/8
f 36/37/6 54/8/6 51/7/6 33/38/6
f 31/42/9 49/2/9 50/1/9 32/36/9
f 55/2/9 56/14/9 57/13/9 62/1/9
f 66/8/6 58/15/6 59/17/6 63/7/6
f 63/7/8 59/17/8 60/16/8 64/6/8
f 65/5/10 61/3/10 56/4/10 55/43/10
f 64/6/10 60/16/10 61/3/10 65/5/10
f 62/1/6 57/13/6 58/15/6 66/8/6
f 8/17/20 6/16/20 60/16/20 59/17/20
f 49/43/3 53/5/3 65/5/3 55/43/3
f 6/16/2 24/3/2 61/3/2 60/16/2
f 22/15/11 8/17/11 59/17/11 58/15/11
f 2/14/21 4/13/21 57/13/21 56/14/21
f 52/6/22 51/7/22 63/7/22 64/6/22
