# Blender 4.2.3 LTS
# www.blender.org
mtllib fridge.mtl
o Cube.003
v -35.141167 7.773084 -40.201527
v -35.141167 15.039592 -40.201527
v -35.141167 7.773084 -42.768803
v -35.141167 15.039592 -42.768803
v -30.029127 7.773084 -40.201527
v -30.029127 15.039592 -40.201527
v -30.029127 7.773084 -42.768803
v -30.029127 15.039592 -42.768803
v -35.215172 15.039592 -40.111542
v -35.215172 15.039592 -42.858788
v -29.955124 15.039592 -42.858788
v -29.955124 15.039592 -40.111542
v -35.215172 15.524971 -40.111542
v -35.215172 15.524971 -42.858788
v -29.955124 15.524971 -42.858788
v -29.955124 15.524971 -40.111542
v -35.141167 10.369178 -40.201527
v -35.141167 10.369178 -42.768803
v -30.029127 10.369178 -42.768803
v -30.029127 10.369178 -40.201527
v -32.585148 7.773084 -42.768803
v -32.585148 15.039592 -42.768803
v -32.585148 7.773084 -40.201527
v -32.585148 15.039592 -40.201527
v -32.585148 15.039592 -42.858788
v -32.585148 15.039592 -40.111542
v -32.585148 15.524971 -42.858788
v -32.585148 15.524971 -40.111542
v -32.585148 10.369178 -40.201527
v -32.585148 10.369178 -42.768803
vn -1.0000 -0.0000 -0.0000
vn -0.0000 -0.0000 -1.0000
vn 1.0000 -0.0000 -0.0000
vn -0.0000 -0.0000 1.0000
vn -0.0000 -1.0000 -0.0000
vn -0.0000 1.0000 -0.0000
vt 0.464317 0.000000
vt 0.625000 0.000000
vt 0.625000 0.250000
vt 0.464317 0.250000
vt 0.464317 0.375000
vt 0.625000 0.375000
vt 0.625000 0.500000
vt 0.464317 0.500000
vt 0.625000 0.750000
vt 0.464317 0.750000
vt 0.464317 0.875000
vt 0.625000 0.875000
vt 0.625000 1.000000
vt 0.464317 1.000000
vt 0.250000 0.500000
vt 0.375000 0.500000
vt 0.375000 0.750000
vt 0.250000 0.750000
vt 0.750000 0.500000
vt 0.875000 0.500000
vt 0.875000 0.750000
vt 0.750000 0.750000
vt 0.375000 0.875000
vt 0.375000 1.000000
vt 0.375000 0.375000
vt 0.375000 0.000000
vt 0.375000 0.250000
vt 0.125000 0.500000
vt 0.125000 0.750000
s 0
f 17/1/1 2/2/1 4/3/1 18/4/1
f 30/5/2 22/6/2 8/7/2 19/8/2
f 19/8/3 8/7/3 6/9/3 20/10/3
f 29/11/4 24/12/4 2/13/4 17/14/4
f 21/15/5 7/16/5 5/17/5 23/18/5
f 4/3/5 2/2/5 9/2/5 10/3/5
f 25/6/2 10/3/2 14/3/2 27/6/2
f 24/12/5 6/9/5 12/9/5 26/12/5
f 22/6/5 4/3/5 10/3/5 25/6/5
f 6/9/5 8/7/5 11/7/5 12/9/5
f 27/19/6 14/20/6 13/21/6 28/22/6
f 12/9/3 11/7/3 15/7/3 16/9/3
f 10/3/1 9/2/1 13/2/1 14/3/1
f 26/12/4 12/9/4 16/9/4 28/12/4
f 23/23/4 29/11/4 17/14/4 1/24/4
f 7/16/3 19/8/3 20/10/3 5/17/3
f 21/25/2 30/5/2 19/8/2 7/16/2
f 1/26/1 17/1/1 18/4/1 3/27/1
f 3/27/2 18/4/2 30/5/2 21/25/2
f 5/17/4 20/10/4 29/11/4 23/23/4
f 9/13/4 26/12/4 28/12/4 13/13/4
f 15/7/6 27/19/6 28/22/6 16/9/6
f 8/7/5 22/6/5 25/6/5 11/7/5
f 2/13/5 24/12/5 26/12/5 9/13/5
f 11/7/2 25/6/2 27/6/2 15/7/2
f 3/28/5 21/15/5 23/18/5 1/29/5
f 20/10/4 6/9/4 24/12/4 29/11/4
f 18/4/2 4/3/2 22/6/2 30/5/2
