# Blender 4.3.0
# www.blender.org
mtllib SideRail.mtl
o Edge.002
v -35.977547 10.269289 -13.184019
v -35.977547 10.269289 13.927412
v -37.071236 10.434523 -13.184019
v -37.071236 10.434523 13.927412
v -37.071236 10.758506 -13.184019
v -35.977547 10.758506 -13.184019
v -35.977547 10.758506 13.927412
v -37.071236 10.758506 13.927412
v -35.977547 10.269289 15.036036
v -37.071236 10.269289 15.036036
v -35.977547 10.758506 15.036036
v -37.071236 10.758506 15.036036
v -52.698826 10.269289 13.927412
v -52.698826 10.269289 15.036036
v -52.698826 10.758506 13.927412
v -52.698826 10.758506 15.036036
v -51.480099 10.758506 13.927412
v -51.480099 10.758506 15.036036
v -51.480099 10.269289 13.927412
v -51.480099 10.269289 15.036036
v -51.480099 10.758506 -14.405003
v -52.698826 10.758506 -14.405003
v -52.698826 10.269289 -14.405003
v -51.480099 10.269289 -14.405003
v -51.480099 10.269289 -13.177062
v -52.698826 10.269289 -13.177062
v -51.480099 10.758506 -13.177062
v -52.698826 10.758506 -13.177062
v -35.976551 10.269289 -14.405003
v -35.976551 10.758506 -14.405003
v -35.976551 10.269289 -13.177062
v -35.976551 10.758506 -13.177062
vn -1.0000 -0.0000 -0.0000
vn 1.0000 -0.0000 -0.0000
vn -0.0000 -0.0000 1.0000
vn -0.0000 -0.0000 -1.0000
vt 0.911873 0.332185
vt 0.911873 0.700219
vt 0.761368 0.700219
vt 0.761368 0.332185
vt 0.488632 0.026417
vt 0.488632 0.394452
vt 0.261368 0.394452
vt 0.261368 0.026417
vt 0.488632 0.740481
vt 0.488632 0.763106
vt 0.261368 0.763106
vt 0.261368 0.740481
vt 0.261368 0.011368
vt 0.488632 0.011368
vt 0.011368 0.395977
vt 0.238632 0.395977
vt 0.238632 0.411026
vt 0.011368 0.411026
vt 0.488632 0.442399
vt 0.261368 0.442399
vt 0.261368 0.417187
vt 0.488632 0.417187
vt 0.761368 0.011368
vt 0.911873 0.011368
vt 0.988632 0.309449
vt 0.761368 0.309449
vt 0.511368 0.722771
vt 0.738632 0.722771
vt 0.738632 0.747983
vt 0.511368 0.747983
vt 0.011368 0.433762
vt 0.238632 0.433762
vt 0.238632 0.754489
vt 0.011368 0.754489
vt 0.238632 0.028037
vt 0.011368 0.028037
vt 0.011368 0.011368
vt 0.238632 0.011368
vt 0.511368 0.011368
vt 0.738632 0.011368
vt 0.738632 0.379308
vt 0.511368 0.379308
vt 0.778037 0.722954
vt 0.778037 0.950219
vt 0.761368 0.950219
vt 0.761368 0.722954
vt 0.511368 0.402043
vt 0.738632 0.402043
s 0
usemtl Material.007
f 3/1/1 4/2/1 8/3/1 5/4/1
f 2/5/2 1/6/2 6/7/2 7/8/2
f 10/9/3 9/10/3 11/11/3 12/12/3
f 2/5/2 7/8/2 11/13/2 9/14/2
f 15/15/1 13/16/1 14/17/1 16/18/1
f 20/19/3 18/20/3 16/21/3 14/22/3
f 10/9/3 12/12/3 18/20/3 20/19/3
f 8/23/4 4/24/4 19/25/4 17/26/4
f 21/27/4 24/28/4 23/29/4 22/30/4
f 27/31/3 25/32/3 31/33/3 32/34/3
f 26/35/1 28/36/1 22/37/1 23/38/1
f 13/16/1 15/15/1 28/36/1 26/35/1
f 17/39/2 19/40/2 25/41/2 27/42/2
f 32/43/2 31/44/2 29/45/2 30/46/2
f 24/28/4 21/27/4 30/47/4 29/48/4
