# Blender 4.3.0
# www.blender.org
mtllib TopRail.mtl
o Edge
v -37.071236 10.758506 -13.184019
v -35.977547 10.758506 -13.184019
v -35.977547 10.758506 13.927412
v -37.071236 10.758506 13.927412
v -35.977547 10.758506 15.036036
v -37.071236 10.758506 15.036036
v -52.698826 10.758506 13.927412
v -52.698826 10.758506 15.036036
v -51.480099 10.758506 13.927412
v -51.480099 10.758506 15.036036
v -51.480099 10.758506 -14.405003
v -52.698826 10.758506 -14.405003
v -51.480099 10.758506 -13.177062
v -52.698826 10.758506 -13.177062
v -35.976551 10.758506 -14.405003
v -35.976551 10.758506 -13.177062
vn -0.0000 1.0000 -0.0000
vt 1.254466 0.126806
vt 1.254466 0.247444
vt -0.624700 0.247444
vt -0.624700 0.126806
vt 0.002079 -0.001565
vt 0.002079 0.124424
vt -0.123550 0.124424
vt -0.123550 -0.001565
vt 1.126406 0.123597
vt 0.999651 0.123597
vt 0.999651 0.000837
vt 1.126406 0.000837
vt 1.000610 0.004816
vt 1.000610 0.121128
vt 0.001009 0.121128
vt 0.001009 0.004816
vt -0.124813 0.000903
vt 0.000218 0.000903
vt 0.000218 0.124882
vt -0.124813 0.124882
vt -0.626521 0.258685
vt -0.626521 0.127981
vt 1.001199 0.127981
vt 1.001199 0.258685
vt -0.379163 0.503223
vt -0.379163 0.383794
vt 0.741338 0.383794
vt 0.741338 0.503223
s 0
usemtl Material.006
f 2/1/1 1/2/1 4/3/1 3/4/1
f 10/5/1 9/6/1 7/7/1 8/8/1
f 3/9/1 4/10/1 6/11/1 5/12/1
f 6/13/1 4/14/1 9/15/1 10/16/1
f 14/17/1 13/18/1 11/19/1 12/20/1
f 7/21/1 9/22/1 13/23/1 14/24/1
f 11/25/1 13/26/1 16/27/1 15/28/1
