# Blender 4.3.0
# www.blender.org
mtllib Chair.mtl
o Chair
v -0.480232 -0.082351 -0.340653
v -0.480232 1.274586 -0.340653
v -0.480232 -0.082351 -0.461125
v -0.480232 1.274586 -0.461125
v -0.359761 -0.082351 -0.340653
v -0.359761 1.274586 -0.340653
v -0.359761 -0.082351 -0.461125
v -0.359761 1.274586 -0.461125
v -0.521181 1.226028 0.712809
v -0.462186 1.373640 0.653813
v -0.521181 1.226028 -0.338448
v -0.462186 1.373640 -0.279453
v 0.530076 1.226028 0.712809
v 0.471080 1.373640 0.653813
v 0.530076 1.226028 -0.338448
v 0.471080 1.373640 -0.279453
v -0.521181 1.373640 -0.496560
v -0.521181 1.226028 -0.496560
v 0.530076 1.226028 -0.496560
v 0.530076 1.373640 -0.496560
v -0.429268 3.484663 -0.338448
v 0.438163 3.484663 -0.338448
v -0.521181 3.589767 -0.496560
v 0.530076 3.589767 -0.496560
v -0.521181 1.373640 0.712809
v -0.429268 1.438338 -0.338448
v 0.438163 1.438338 -0.338448
v 0.530076 1.373640 0.712809
v -0.521181 1.373640 -0.338448
v 0.530076 1.373640 -0.338448
v -0.521181 3.589767 -0.338448
v 0.530076 3.589767 -0.338448
v -0.491200 -0.082351 0.666126
v -0.491200 1.274586 0.666126
v -0.491200 -0.082351 0.545655
v -0.491200 1.274586 0.545655
v -0.370728 -0.082351 0.666126
v -0.370728 1.274586 0.666126
v -0.370728 -0.082351 0.545655
v -0.370728 1.274586 0.545655
v 0.356350 -0.082351 0.666126
v 0.356350 1.274586 0.666126
v 0.356350 -0.082351 0.545655
v 0.356350 1.274586 0.545655
v 0.476821 -0.082351 0.666126
v 0.476821 1.274586 0.666126
v 0.476821 -0.082351 0.545655
v 0.476821 1.274586 0.545655
v 0.356350 -0.082351 -0.343198
v 0.356350 1.274586 -0.343198
v 0.356350 -0.082351 -0.463670
v 0.356350 1.274586 -0.463670
v 0.476821 -0.082351 -0.343198
v 0.476821 1.274586 -0.343198
v 0.476821 -0.082351 -0.463670
v 0.476821 1.274586 -0.463670
vn -1.0000 -0.0000 -0.0000
vn -0.0000 -0.0000 -1.0000
vn 1.0000 -0.0000 -0.0000
vn -0.0000 -0.0000 1.0000
vn -0.0000 -1.0000 -0.0000
vn -0.0000 1.0000 -0.0000
vt 0.239509 0.597752
vt 0.189345 0.597752
vt 0.189345 0.547587
vt 0.239509 0.547587
vt 0.319010 0.597752
vt 0.268846 0.597752
vt 0.268846 0.547587
vt 0.319010 0.547587
vt 0.398511 0.597752
vt 0.348347 0.597752
vt 0.348347 0.547587
vt 0.398511 0.547587
vt 0.160008 0.677253
vt 0.109843 0.677253
vt 0.109843 0.627089
vt 0.160008 0.627089
vt 0.239509 0.627089
vt 0.239509 0.677253
vt 0.189345 0.677253
vt 0.189345 0.627089
vt 0.685856 0.985332
vt 0.680399 0.985332
vt 0.680399 0.547587
vt 0.685856 0.547587
vt 0.563677 0.919494
vt 0.569134 0.919494
vt 0.569134 0.985332
vt 0.563677 0.985332
vt 0.563677 0.481749
vt 0.569134 0.481749
vt 0.948636 0.919493
vt 0.943178 0.919493
vt 0.943178 0.481749
vt 0.948636 0.481749
vt 0.452413 0.452413
vt 0.014668 0.452413
vt 0.014668 0.014668
vt 0.452413 0.014668
vt 0.802577 0.919493
vt 0.797120 0.919493
vt 0.797120 0.481749
vt 0.802577 0.481749
vt 0.452413 0.518251
vt 0.014668 0.518251
vt 0.680399 0.481749
vt 0.598471 0.547587
vt 0.598471 0.481749
vt 0.685856 0.481749
vt 0.014668 0.985332
vt 0.014668 0.547587
vt 0.080506 0.547587
vt 0.080506 0.985332
vt 0.481749 0.985332
vt 0.481749 0.919494
vt 0.715193 0.919493
vt 0.715193 0.481749
vt 0.506315 0.427847
vt 0.894928 0.427847
vt 0.919493 0.452413
vt 0.481749 0.452413
vt 0.894928 0.039234
vt 0.919494 0.014668
vt 0.506315 0.039234
vt 0.481749 0.014668
vt 0.911450 0.881221
vt 0.911450 0.520022
vt 0.913842 0.481749
vt 0.913841 0.919493
vt 0.835800 0.520022
vt 0.835800 0.881221
vt 0.831914 0.919493
vt 0.831914 0.481749
vt 0.319010 0.677253
vt 0.268846 0.677253
vt 0.268846 0.627089
vt 0.319010 0.627089
vt 0.348347 0.677253
vt 0.348347 0.627089
vt 0.398511 0.627089
vt 0.398511 0.677253
vt 0.160008 0.756754
vt 0.109843 0.756754
vt 0.109843 0.706590
vt 0.160008 0.706590
vt 0.189345 0.756754
vt 0.189345 0.706590
vt 0.239509 0.706590
vt 0.239509 0.756754
vt 0.319010 0.756754
vt 0.268846 0.756754
vt 0.268846 0.706590
vt 0.319010 0.706590
vt 0.398511 0.756754
vt 0.348347 0.756754
vt 0.348347 0.706590
vt 0.398511 0.706590
vt 0.160008 0.836256
vt 0.109843 0.836256
vt 0.109843 0.786091
vt 0.160008 0.786091
vt 0.239509 0.836256
vt 0.189345 0.836256
vt 0.189345 0.786091
vt 0.239509 0.786091
vt 0.319010 0.836256
vt 0.268846 0.836256
vt 0.268846 0.786091
vt 0.319010 0.786091
vt 0.160008 0.547587
vt 0.160008 0.597752
vt 0.109843 0.597752
vt 0.109843 0.547587
vt 0.348347 0.836256
vt 0.348347 0.786091
vt 0.398511 0.786091
vt 0.398511 0.836256
vt 0.160008 0.915757
vt 0.109843 0.915757
vt 0.109843 0.865593
vt 0.160008 0.865593
vt 0.189345 0.915757
vt 0.189345 0.865592
vt 0.239509 0.865592
vt 0.239509 0.915757
vt 0.319010 0.915757
vt 0.268846 0.915757
vt 0.268846 0.865593
vt 0.319010 0.865593
vt 0.398511 0.865592
vt 0.398511 0.915757
vt 0.348347 0.915757
vt 0.348347 0.865592
s 0
usemtl ChairLegs
f 1/1/1 2/2/1 4/3/1 3/4/1
f 3/5/2 4/6/2 8/7/2 7/8/2
f 7/9/3 8/10/3 6/11/3 5/12/3
f 5/13/4 6/14/4 2/15/4 1/16/4
f 3/17/5 7/18/5 5/19/5 1/20/5
f 9/21/1 25/22/1 29/23/1 11/24/1
f 30/25/3 15/26/3 19/27/3 20/28/3
f 15/26/3 30/25/3 28/29/3 13/30/3
f 13/31/4 28/32/4 25/33/4 9/34/4
f 11/35/5 15/36/5 13/37/5 9/38/5
f 18/39/2 17/40/2 20/41/2 19/42/2
f 15/36/5 11/35/5 18/43/5 19/44/5
f 17/45/1 29/23/1 31/46/1 23/47/1
f 11/24/1 29/23/1 17/45/1 18/48/1
f 31/49/6 32/50/6 24/51/6 23/52/6
f 30/25/3 20/28/3 24/53/3 32/54/3
f 20/41/2 17/40/2 23/55/2 24/56/2
f 10/57/6 12/58/6 29/59/6 25/60/6
f 12/58/6 16/61/6 30/62/6 29/59/6
f 16/61/6 14/63/6 28/64/6 30/62/6
f 14/63/6 10/57/6 25/60/6 28/64/6
f 27/65/4 26/66/4 29/67/4 30/68/4
f 21/69/4 22/70/4 32/71/4 31/72/4
f 26/66/4 21/69/4 31/72/4 29/67/4
f 22/70/4 27/65/4 30/68/4 32/71/4
f 33/73/1 34/74/1 36/75/1 35/76/1
f 35/77/2 36/78/2 40/79/2 39/80/2
f 39/81/3 40/82/3 38/83/3 37/84/3
f 37/85/4 38/86/4 34/87/4 33/88/4
f 35/89/5 39/90/5 37/91/5 33/92/5
f 41/93/1 42/94/1 44/95/1 43/96/1
f 43/97/2 44/98/2 48/99/2 47/100/2
f 47/101/3 48/102/3 46/103/3 45/104/3
f 45/105/4 46/106/4 42/107/4 41/108/4
f 43/109/5 47/110/5 45/111/5 41/112/5
f 49/113/1 50/114/1 52/115/1 51/116/1
f 51/117/2 52/118/2 56/119/2 55/120/2
f 55/121/3 56/122/3 54/123/3 53/124/3
f 53/125/4 54/126/4 50/127/4 49/128/4
f 51/129/5 55/130/5 53/131/5 49/132/5
