# Blender 4.3.0
# www.blender.org
mtllib Frame.mtl
o WindowFrame
v -3.688274 5.824358 0.003002
v -3.688274 18.319479 0.003002
v 3.740055 5.824358 0.003002
v 3.740055 18.319479 0.003002
v -3.400272 18.031477 1.047043
v -3.510723 6.001908 1.047043
v 3.540119 6.024295 1.047043
v 3.521465 18.100889 1.047043
v -3.688274 12.071918 0.003002
v 3.740055 12.071918 0.003002
v -3.400272 12.359919 1.047043
v 3.521465 12.290508 1.047043
v 0.025890 5.824358 0.003002
v 0.025890 18.319479 0.003002
v 0.225826 6.024295 1.047043
v 0.244480 18.100889 1.047043
v 0.244480 12.290508 1.047043
v -0.262112 18.031477 1.047043
v 3.740055 18.319479 1.047043
v 3.540119 11.871981 1.047043
v -0.262112 12.359919 1.047043
v -3.688274 18.319479 1.047043
v -3.510723 11.894367 1.047043
v 0.025890 18.319479 1.047043
v 0.225826 11.871981 1.047043
v 3.740055 12.071918 1.047043
v 3.740055 5.824358 1.047043
v -0.151661 11.894367 1.047043
v -0.151661 6.001908 1.047043
v -3.688274 12.071918 1.047043
v -3.688274 5.824358 1.047043
v 0.025890 5.824358 1.047043
v 0.025890 12.071918 1.047043
v 0.244480 18.100889 1.780575
v 3.521465 18.100889 1.780575
v 3.521465 12.290508 1.780575
v 0.244480 12.290508 1.780575
v -3.400272 18.031477 1.780575
v -3.400272 12.359919 1.780575
v -0.262112 18.031477 1.780575
v -0.262112 12.359919 1.780575
v 3.540119 11.871981 1.780575
v 3.540119 6.024295 1.780575
v 0.225826 11.871981 1.780575
v 0.225826 6.024295 1.780575
v -3.510723 11.894367 1.780575
v -3.510723 6.001908 1.780575
v -0.151661 6.001908 1.780575
v -0.151661 11.894367 1.780575
vn -0.0000 -1.0000 -0.0000
vn -1.0000 -0.0000 -0.0000
vn 1.0000 -0.0000 -0.0000
vn -0.0000 1.0000 -0.0000
vn -0.0000 -0.0000 -1.0000
vt 0.689893 0.221691
vt 0.689893 0.429054
vt 0.631604 0.429054
vt 0.631604 0.221691
vt 0.811779 0.457711
vt 0.811779 0.784189
vt 0.770825 0.784189
vt 0.770825 0.457711
vt 0.457712 0.363132
vt 0.457712 0.014329
vt 0.516001 0.014329
vt 0.516001 0.363132
vt 0.602947 0.363132
vt 0.602947 0.711935
vt 0.544658 0.711935
vt 0.544658 0.363132
vt 0.776840 0.221691
vt 0.776840 0.429054
vt 0.718551 0.429054
vt 0.718551 0.221691
vt 0.602947 0.014329
vt 0.544658 0.014329
vt 0.457712 0.711935
vt 0.516001 0.711935
vt 0.881389 0.457712
vt 0.881389 0.782107
vt 0.840436 0.782107
vt 0.840436 0.457712
vt 0.910046 0.774356
vt 0.910046 0.457712
vt 0.951000 0.457712
vt 0.951000 0.774356
vt 0.776840 0.014329
vt 0.718551 0.014329
vt 0.333724 0.740592
vt 0.333724 0.923547
vt 0.292771 0.923547
vt 0.292771 0.740592
vt 0.689893 0.014329
vt 0.631604 0.014329
vt 0.416850 0.026533
vt 0.233895 0.026533
vt 0.221691 0.014329
vt 0.429054 0.014329
vt 0.416850 0.350928
vt 0.429054 0.363132
vt 0.233895 0.350928
vt 0.221691 0.363132
vt 0.030408 0.030408
vt 0.030408 0.347053
vt 0.014329 0.363132
vt 0.014329 0.014329
vt 0.205612 0.030408
vt 0.205612 0.347053
vt 0.417892 0.700772
vt 0.417892 0.374294
vt 0.429054 0.711935
vt 0.232854 0.374294
vt 0.232854 0.700772
vt 0.221691 0.711935
vt 0.024241 0.373044
vt 0.024241 0.702022
vt 0.014329 0.711935
vt 0.211779 0.702022
vt 0.211779 0.373044
vt 0.472945 0.740592
vt 0.472945 0.915796
vt 0.431992 0.915796
vt 0.431992 0.740592
vt 0.631604 0.786689
vt 0.631604 0.457712
vt 0.672558 0.457712
vt 0.672558 0.786689
vt 0.403335 0.740592
vt 0.403335 0.923547
vt 0.362381 0.923547
vt 0.362382 0.740592
vt 0.194503 0.740592
vt 0.194503 0.925630
vt 0.153550 0.925630
vt 0.153550 0.740592
vt 0.542556 0.740592
vt 0.542556 0.915796
vt 0.501603 0.915796
vt 0.501603 0.740592
vt 0.055282 0.740592
vt 0.055282 0.928129
vt 0.014329 0.928129
vt 0.014329 0.740592
vt 0.875108 0.338724
vt 0.875108 0.014329
vt 0.916061 0.014329
vt 0.916061 0.338724
vt 0.264114 0.740592
vt 0.264114 0.925630
vt 0.223160 0.925630
vt 0.223160 0.740592
vt 0.985671 0.014329
vt 0.985671 0.330973
vt 0.944718 0.330973
vt 0.944718 0.014329
vt 0.124893 0.740592
vt 0.124892 0.928129
vt 0.083939 0.928129
vt 0.083939 0.740592
vt 0.805497 0.340807
vt 0.805497 0.014329
vt 0.846450 0.014329
vt 0.846450 0.340807
vt 0.742168 0.457712
vt 0.742168 0.786689
vt 0.701215 0.786689
vt 0.701215 0.457712
s 0
usemtl Material.004
f 14/1/1 4/2/1 19/3/1 24/4/1
f 20/5/2 7/6/2 43/7/2 42/8/2
f 9/9/3 2/10/3 22/11/3 30/12/3
f 10/13/2 3/14/2 27/15/2 26/16/2
f 13/17/4 1/18/4 31/19/4 32/20/4
f 4/21/2 10/13/2 26/16/2 19/22/2
f 1/23/3 9/9/3 30/12/3 31/24/3
f 8/25/2 12/26/2 36/27/2 35/28/2
f 11/29/3 5/30/3 38/31/3 39/32/3
f 3/33/4 13/17/4 32/20/4 27/34/4
f 16/35/1 8/36/1 35/37/1 34/38/1
f 2/39/1 14/1/1 24/4/1 22/40/1
f 8/41/5 16/42/5 24/43/5 19/44/5
f 12/45/5 8/41/5 19/44/5 26/46/5
f 17/47/5 12/45/5 26/46/5 33/48/5
f 16/42/5 17/47/5 33/48/5 24/43/5
f 5/49/5 11/50/5 30/51/5 22/52/5
f 18/53/5 5/49/5 22/52/5 24/43/5
f 11/50/5 21/54/5 33/48/5 30/51/5
f 21/54/5 18/53/5 24/43/5 33/48/5
f 7/55/5 20/56/5 26/46/5 27/57/5
f 20/56/5 25/58/5 33/48/5 26/46/5
f 15/59/5 7/55/5 27/57/5 32/60/5
f 25/58/5 15/59/5 32/60/5 33/48/5
f 23/61/5 6/62/5 31/63/5 30/51/5
f 6/62/5 29/64/5 32/60/5 31/63/5
f 28/65/5 23/61/5 30/51/5 33/48/5
f 29/64/5 28/65/5 33/48/5 32/60/5
f 5/66/1 18/67/1 40/68/1 38/69/1
f 6/70/3 23/71/3 46/72/3 47/73/3
f 12/74/4 17/75/4 37/76/4 36/77/4
f 25/78/1 20/79/1 42/80/1 44/81/1
f 21/82/4 11/83/4 39/84/4 41/85/4
f 29/86/4 6/87/4 47/88/4 48/89/4
f 17/90/3 16/91/3 34/92/3 37/93/3
f 7/94/4 15/95/4 45/96/4 43/97/4
f 18/98/2 21/99/2 41/100/2 40/101/2
f 23/102/1 28/103/1 49/104/1 46/105/1
f 15/106/3 25/107/3 44/108/3 45/109/3
f 28/110/2 29/111/2 48/112/2 49/113/2
