# Blender 4.3.0
# www.blender.org
mtllib Mat.mtl
o PlaceMat
v 0.140024 2.001991 -0.312593
v 0.140024 2.092924 -0.312593
v 0.140024 2.001991 -1.377492
v 0.140024 2.092924 -1.377492
v 1.428162 2.001991 -0.312593
v 1.428162 2.092924 -0.312593
v 1.428162 2.001991 -1.377492
v 1.428162 2.092924 -1.377492
vn -1.0000 -0.0000 -0.0000
vn -0.0000 -0.0000 -1.0000
vn 1.0000 -0.0000 -0.0000
vn -0.0000 -0.0000 1.0000
vn -0.0000 -1.0000 -0.0000
vn -0.0000 1.0000 -0.0000
vt 0.951902 0.058668
vt 0.951902 0.118596
vt 0.056686 0.118596
vt 0.056686 0.058668
vt 0.064303 0.457068
vt 0.064303 0.544901
vt 0.948935 0.544901
vt 0.948935 0.457068
vt 0.890028 0.934529
vt 0.939634 0.935549
vt 0.939634 0.050917
vt 0.898309 0.050917
vt 0.144913 0.057118
vt 0.224994 0.057118
vt 0.224994 0.924698
vt 0.144913 0.924698
vt 0.939634 0.943300
vt 0.939634 0.058668
vt 0.055002 0.058668
vt 0.055002 0.943300
s 0
usemtl PlaceMat
f 1/1/1 2/2/1 4/3/1 3/4/1
f 3/5/2 4/6/2 8/7/2 7/8/2
f 7/9/3 8/10/3 6/11/3 5/12/3
f 5/13/4 6/14/4 2/15/4 1/16/4
f 3/17/5 7/18/5 5/19/5 1/20/5
f 8/19/6 4/18/6 2/17/6 6/20/6
