# Blender 4.3.0
# www.blender.org
mtllib Pane.mtl
o Glass
v 0.244480 18.100889 1.780575
v 3.521465 18.100889 1.780575
v 3.521465 12.290508 1.780575
v 0.244480 12.290508 1.780575
v -3.400272 18.031477 1.780575
v -3.400272 12.359919 1.780575
v -0.262112 18.031477 1.780575
v -0.262112 12.359919 1.780575
v 3.540119 11.871981 1.780575
v 3.540119 6.024295 1.780575
v 0.225826 11.871981 1.780575
v 0.225826 6.024295 1.780575
v -3.510723 11.894367 1.780575
v -3.510723 6.001908 1.780575
v -0.151661 6.001908 1.780575
v -0.151661 11.894367 1.780575
vn -0.0000 -0.0000 -1.0000
vt 0.041496 0.064713
vt 0.965698 0.073549
vt 0.955045 0.960525
vt 0.047091 0.957891
vt 0.041496 0.064713
vt 0.965698 0.073549
s 0
usemtl StainedGlass.002
f 4/1/1 1/2/1 2/3/1 3/4/1
f 12/1/1 11/2/1 9/3/1 10/4/1
f 14/5/1 13/6/1 16/3/1 15/4/1
f 6/1/1 5/2/1 7/3/1 8/4/1
