# Blender 4.3.0
# www.blender.org
mtllib Sticks.mtl
o PlaceMat.002
v 0.299964 2.120803 -1.099774
v 0.299964 2.110112 -0.745489
v 0.303639 2.120441 -1.099774
v 0.301553 2.109956 -0.745489
v 0.307173 2.119369 -1.099774
v 0.303082 2.109492 -0.745489
v 0.310430 2.117628 -1.099774
v 0.304491 2.108739 -0.745489
v 0.313285 2.115285 -1.099774
v 0.305726 2.107726 -0.745489
v 0.315628 2.112430 -1.099774
v 0.306740 2.106491 -0.745489
v 0.317369 2.109173 -1.099774
v 0.307493 2.105082 -0.745489
v 0.318441 2.105639 -1.099774
v 0.307956 2.103553 -0.745489
v 0.318803 2.101963 -1.099774
v 0.308113 2.101963 -0.745489
v 0.318441 2.098288 -1.099774
v 0.307956 2.100373 -0.745489
v 0.317369 2.094753 -1.099774
v 0.307493 2.098844 -0.745489
v 0.315628 2.091496 -1.099774
v 0.306740 2.097435 -0.745489
v 0.313285 2.088641 -1.099774
v 0.305726 2.096200 -0.745489
v 0.310430 2.086298 -1.099774
v 0.304491 2.095187 -0.745489
v 0.307173 2.084557 -1.099774
v 0.303082 2.094434 -0.745489
v 0.303639 2.083485 -1.099774
v 0.301553 2.093970 -0.745489
v 0.299964 2.083123 -1.099774
v 0.299964 2.093814 -0.745489
v 0.296288 2.083485 -1.099774
v 0.298374 2.093970 -0.745489
v 0.292754 2.084557 -1.099774
v 0.296845 2.094434 -0.745489
v 0.289497 2.086298 -1.099774
v 0.295436 2.095187 -0.745489
v 0.286642 2.088641 -1.099774
v 0.294201 2.096200 -0.745489
v 0.284299 2.091496 -1.099774
v 0.293188 2.097435 -0.745489
v 0.282558 2.094753 -1.099774
v 0.292434 2.098844 -0.745489
v 0.281486 2.098288 -1.099774
v 0.291971 2.100373 -0.745489
v 0.281124 2.101963 -1.099774
v 0.291814 2.101963 -0.745489
v 0.281486 2.105639 -1.099774
v 0.291971 2.103553 -0.745489
v 0.282558 2.109173 -1.099774
v 0.292434 2.105082 -0.745489
v 0.284299 2.112430 -1.099774
v 0.293188 2.106491 -0.745489
v 0.286642 2.115285 -1.099774
v 0.294201 2.107726 -0.745489
v 0.289497 2.117628 -1.099774
v 0.295436 2.108739 -0.745489
v 0.292754 2.119369 -1.099774
v 0.296845 2.109492 -0.745489
v 0.296288 2.120441 -1.099774
v 0.298374 2.109956 -0.745489
v 0.239637 2.123003 -1.102046
v 0.239637 2.112313 -0.747761
v 0.243313 2.122642 -1.102046
v 0.241227 2.112156 -0.747761
v 0.246847 2.121569 -1.102046
v 0.242756 2.111693 -0.747761
v 0.250104 2.119828 -1.102046
v 0.244165 2.110940 -0.747761
v 0.252959 2.117486 -1.102046
v 0.245400 2.109926 -0.747761
v 0.255302 2.114630 -1.102046
v 0.246413 2.108691 -0.747761
v 0.257043 2.111373 -1.102046
v 0.247166 2.107282 -0.747761
v 0.258115 2.107839 -1.102046
v 0.247630 2.105753 -0.747761
v 0.258477 2.104164 -1.102046
v 0.247787 2.104164 -0.747761
v 0.258115 2.100488 -1.102046
v 0.247630 2.102574 -0.747761
v 0.257043 2.096954 -1.102046
v 0.247166 2.101045 -0.747761
v 0.255302 2.093697 -1.102046
v 0.246413 2.099636 -0.747761
v 0.252959 2.090842 -1.102046
v 0.245400 2.098401 -0.747761
v 0.250104 2.088499 -1.102046
v 0.244165 2.097388 -0.747761
v 0.246847 2.086758 -1.102046
v 0.242756 2.096635 -0.747761
v 0.243313 2.085686 -1.102046
v 0.241227 2.096171 -0.747761
v 0.239637 2.085324 -1.102046
v 0.239637 2.096014 -0.747761
v 0.235962 2.085686 -1.102046
v 0.238047 2.096171 -0.747761
v 0.232428 2.086758 -1.102046
v 0.236519 2.096635 -0.747761
v 0.229171 2.088499 -1.102046
v 0.235110 2.097388 -0.747761
v 0.226316 2.090842 -1.102046
v 0.233875 2.098401 -0.747761
v 0.223973 2.093697 -1.102046
v 0.232861 2.099636 -0.747761
v 0.222232 2.096954 -1.102046
v 0.232108 2.101045 -0.747761
v 0.221160 2.100488 -1.102046
v 0.231645 2.102574 -0.747761
v 0.220798 2.104164 -1.102046
v 0.231488 2.104164 -0.747761
v 0.221160 2.107839 -1.102046
v 0.231645 2.105753 -0.747761
v 0.222232 2.111373 -1.102046
v 0.232108 2.107282 -0.747761
v 0.223973 2.114630 -1.102046
v 0.232861 2.108691 -0.747761
v 0.226316 2.117486 -1.102046
v 0.233875 2.109926 -0.747761
v 0.229171 2.119828 -1.102046
v 0.235110 2.110940 -0.747761
v 0.232428 2.121569 -1.102046
v 0.236519 2.111693 -0.747761
v 0.235962 2.122642 -1.102046
v 0.238047 2.112156 -0.747761
vn 0.0980 0.9947 0.0300
vn 0.2902 0.9565 0.0300
vn 0.4712 0.8815 0.0300
vn 0.6341 0.7727 0.0300
vn 0.7727 0.6341 0.0300
vn 0.8815 0.4712 0.0300
vn 0.9565 0.2902 0.0300
vn 0.9947 0.0980 0.0300
vn 0.9947 -0.0980 0.0300
vn 0.9565 -0.2902 0.0300
vn 0.8815 -0.4712 0.0300
vn 0.7727 -0.6341 0.0300
vn 0.6341 -0.7727 0.0300
vn 0.4712 -0.8815 0.0300
vn 0.2902 -0.9565 0.0300
vn 0.0980 -0.9947 0.0300
vn -0.0980 -0.9947 0.0300
vn -0.2902 -0.9565 0.0300
vn -0.4712 -0.8815 0.0300
vn -0.6341 -0.7727 0.0300
vn -0.7727 -0.6341 0.0300
vn -0.8815 -0.4712 0.0300
vn -0.9565 -0.2902 0.0300
vn -0.9947 -0.0980 0.0300
vn -0.9947 0.0980 0.0300
vn -0.9565 0.2902 0.0300
vn -0.8815 0.4712 0.0300
vn -0.7727 0.6341 0.0300
vn -0.6341 0.7727 0.0300
vn -0.4712 0.8815 0.0300
vn -0.0000 -0.0000 1.0000
vn -0.2902 0.9565 0.0300
vn -0.0980 0.9947 0.0300
vn -0.0000 -0.0000 -1.0000
vt 0.593801 0.975794
vt 0.637040 0.681394
vt 0.647216 0.683078
vt 0.617326 0.979687
vt 0.658499 0.684115
vt 0.643410 0.982084
vt 0.670455 0.684465
vt 0.671050 0.982893
vt 0.682625 0.684115
vt 0.699185 0.982084
vt 0.694542 0.683078
vt 0.726734 0.979687
vt 0.705746 0.681394
vt 0.752637 0.975794
vt 0.715809 0.679128
vt 0.775899 0.970556
vt 0.572574 0.971007
vt 0.632664 0.679579
vt 0.642726 0.681845
vt 0.595836 0.976246
vt 0.653931 0.683529
vt 0.621739 0.980138
vt 0.665847 0.684566
vt 0.649287 0.982535
vt 0.678018 0.684916
vt 0.677422 0.983344
vt 0.689974 0.684566
vt 0.705063 0.982535
vt 0.701257 0.683529
vt 0.731147 0.980138
vt 0.711433 0.681845
vt 0.754672 0.976245
vt 0.720111 0.679579
vt 0.774733 0.971007
vt 0.570094 0.965471
vt 0.625247 0.675927
vt 0.632171 0.678486
vt 0.586101 0.971388
vt 0.640912 0.680497
vt 0.606308 0.976036
vt 0.651133 0.681882
vt 0.629936 0.979239
vt 0.662441 0.682588
vt 0.656079 0.980871
vt 0.674402 0.682588
vt 0.683732 0.980871
vt 0.686557 0.681882
vt 0.711831 0.979239
vt 0.698438 0.680497
vt 0.739298 0.976036
vt 0.709589 0.678486
vt 0.765076 0.971388
vt 0.719580 0.675927
vt 0.788175 0.965471
vt 0.576246 0.972803
vt 0.627932 0.679768
vt 0.638055 0.681744
vt 0.599649 0.977371
vt 0.649303 0.683105
vt 0.625653 0.980516
vt 0.661245 0.683798
vt 0.653259 0.982120
vt 0.673420 0.683798
vt 0.681406 0.982120
vt 0.685361 0.683105
vt 0.709012 0.980516
vt 0.696610 0.681744
vt 0.735016 0.977371
vt 0.817649 0.597058
vt 0.810885 0.586935
vt 0.806226 0.575686
vt 0.803851 0.563745
vt 0.803851 0.551570
vt 0.806226 0.539628
vt 0.810885 0.528380
vt 0.817649 0.518257
vt 0.826259 0.509647
vt 0.836382 0.502883
vt 0.847630 0.498224
vt 0.859572 0.495849
vt 0.871747 0.495849
vt 0.883688 0.498224
vt 0.894937 0.502883
vt 0.905060 0.509647
vt 0.913669 0.518257
vt 0.920433 0.528380
vt 0.925093 0.539628
vt 0.927468 0.551570
vt 0.927468 0.563745
vt 0.925093 0.575686
vt 0.920433 0.586935
vt 0.913669 0.597058
vt 0.905060 0.605667
vt 0.894937 0.612431
vt 0.883688 0.617091
vt 0.871747 0.619466
vt 0.859572 0.619466
vt 0.847630 0.617091
vt 0.836382 0.612431
vt 0.826259 0.605667
vt 0.706733 0.679768
vt 0.758419 0.972803
vt 0.573739 0.970556
vt 0.628362 0.679128
vt 0.589709 0.247952
vt 0.574071 0.224549
vt 0.563300 0.198545
vt 0.557809 0.170939
vt 0.557809 0.142792
vt 0.563300 0.115186
vt 0.574071 0.089182
vt 0.589709 0.065779
vt 0.609612 0.045876
vt 0.633015 0.030238
vt 0.659019 0.019467
vt 0.686625 0.013976
vt 0.714772 0.013976
vt 0.742378 0.019467
vt 0.768382 0.030238
vt 0.791785 0.045876
vt 0.811688 0.065779
vt 0.827325 0.089182
vt 0.838097 0.115186
vt 0.843588 0.142792
vt 0.843588 0.170939
vt 0.838097 0.198545
vt 0.827325 0.224549
vt 0.811688 0.247952
vt 0.791785 0.267855
vt 0.768382 0.283492
vt 0.742378 0.294264
vt 0.714772 0.299755
vt 0.686625 0.299755
vt 0.659019 0.294264
vt 0.633015 0.283492
vt 0.609612 0.267855
vt 0.593801 0.974075
vt 0.637040 0.679675
vt 0.647216 0.681358
vt 0.617326 0.977967
vt 0.658499 0.682395
vt 0.643410 0.980364
vt 0.670455 0.682745
vt 0.671050 0.981173
vt 0.682625 0.682395
vt 0.699185 0.980364
vt 0.694542 0.681358
vt 0.726734 0.977967
vt 0.705746 0.679675
vt 0.752637 0.974075
vt 0.715809 0.677409
vt 0.775899 0.968837
vt 0.573739 0.968585
vt 0.633830 0.677157
vt 0.643892 0.679423
vt 0.597001 0.973823
vt 0.655097 0.681106
vt 0.622904 0.977715
vt 0.667013 0.682143
vt 0.650453 0.980112
vt 0.679183 0.682493
vt 0.678588 0.980922
vt 0.691140 0.682143
vt 0.706229 0.980112
vt 0.702422 0.681106
vt 0.732313 0.977715
vt 0.712599 0.679423
vt 0.755837 0.973823
vt 0.721276 0.677157
vt 0.775899 0.968585
vt 0.572554 0.973544
vt 0.627708 0.683999
vt 0.634632 0.686559
vt 0.588562 0.979460
vt 0.643372 0.688570
vt 0.608768 0.984109
vt 0.653593 0.689955
vt 0.632397 0.987311
vt 0.664902 0.690661
vt 0.658540 0.988944
vt 0.676863 0.690661
vt 0.686193 0.988944
vt 0.689018 0.689955
vt 0.714292 0.987311
vt 0.700899 0.688570
vt 0.741758 0.984109
vt 0.712049 0.686559
vt 0.767536 0.979460
vt 0.722041 0.683999
vt 0.790635 0.973544
vt 0.587302 0.975114
vt 0.638988 0.682078
vt 0.649111 0.684054
vt 0.610705 0.979681
vt 0.660360 0.685415
vt 0.636709 0.982827
vt 0.672301 0.686109
vt 0.664315 0.984430
vt 0.684476 0.686109
vt 0.692462 0.984430
vt 0.696418 0.685415
vt 0.720068 0.982827
vt 0.707666 0.684054
vt 0.746072 0.979681
vt 0.894937 0.460862
vt 0.883688 0.465522
vt 0.871747 0.467897
vt 0.859572 0.467897
vt 0.847630 0.465522
vt 0.836382 0.460862
vt 0.826259 0.454098
vt 0.817649 0.445489
vt 0.810885 0.435366
vt 0.806226 0.424117
vt 0.803851 0.412176
vt 0.803851 0.400001
vt 0.806226 0.388059
vt 0.810885 0.376811
vt 0.817649 0.366688
vt 0.826259 0.358078
vt 0.836382 0.351314
vt 0.847630 0.346655
vt 0.859572 0.344280
vt 0.871747 0.344280
vt 0.883688 0.346655
vt 0.894937 0.351314
vt 0.905060 0.358078
vt 0.913669 0.366688
vt 0.920433 0.376811
vt 0.925093 0.388059
vt 0.927468 0.400001
vt 0.927468 0.412176
vt 0.925093 0.424117
vt 0.920433 0.435366
vt 0.913669 0.445489
vt 0.905060 0.454098
vt 0.717789 0.682078
vt 0.769475 0.975114
vt 0.573739 0.968837
vt 0.628362 0.677409
vt 0.566548 0.581586
vt 0.546645 0.561683
vt 0.531008 0.538280
vt 0.520236 0.512275
vt 0.514745 0.484669
vt 0.514745 0.456523
vt 0.520236 0.428917
vt 0.531008 0.402912
vt 0.546645 0.379509
vt 0.566548 0.359607
vt 0.589951 0.343969
vt 0.615955 0.333198
vt 0.643561 0.327707
vt 0.671708 0.327707
vt 0.699314 0.333198
vt 0.725318 0.343969
vt 0.748721 0.359607
vt 0.768624 0.379509
vt 0.784262 0.402913
vt 0.795033 0.428917
vt 0.800524 0.456523
vt 0.800524 0.484670
vt 0.795033 0.512276
vt 0.784262 0.538280
vt 0.768624 0.561683
vt 0.748721 0.581586
vt 0.725318 0.597223
vt 0.699314 0.607994
vt 0.671708 0.613486
vt 0.643561 0.613486
vt 0.615955 0.607994
vt 0.589951 0.597223
s 0
usemtl Plate
f 1/1/1 2/2/1 4/3/1 3/4/1
f 3/4/2 4/3/2 6/5/2 5/6/2
f 5/6/3 6/5/3 8/7/3 7/8/3
f 7/8/4 8/7/4 10/9/4 9/10/4
f 9/10/5 10/9/5 12/11/5 11/12/5
f 11/12/6 12/11/6 14/13/6 13/14/6
f 13/14/7 14/13/7 16/15/7 15/16/7
f 15/17/8 16/18/8 18/19/8 17/20/8
f 17/20/9 18/19/9 20/21/9 19/22/9
f 19/22/10 20/21/10 22/23/10 21/24/10
f 21/24/11 22/23/11 24/25/11 23/26/11
f 23/26/12 24/25/12 26/27/12 25/28/12
f 25/28/13 26/27/13 28/29/13 27/30/13
f 27/30/14 28/29/14 30/31/14 29/32/14
f 29/32/15 30/31/15 32/33/15 31/34/15
f 31/35/16 32/36/16 34/37/16 33/38/16
f 33/38/17 34/37/17 36/39/17 35/40/17
f 35/40/18 36/39/18 38/41/18 37/42/18
f 37/42/19 38/41/19 40/43/19 39/44/19
f 39/44/20 40/43/20 42/45/20 41/46/20
f 41/46/21 42/45/21 44/47/21 43/48/21
f 43/48/22 44/47/22 46/49/22 45/50/22
f 45/50/23 46/49/23 48/51/23 47/52/23
f 47/52/24 48/51/24 50/53/24 49/54/24
f 49/55/25 50/56/25 52/57/25 51/58/25
f 51/58/26 52/57/26 54/59/26 53/60/26
f 53/60/27 54/59/27 56/61/27 55/62/27
f 55/62/28 56/61/28 58/63/28 57/64/28
f 57/64/29 58/63/29 60/65/29 59/66/29
f 59/66/30 60/65/30 62/67/30 61/68/30
f 4/69/31 2/70/31 64/71/31 62/72/31 60/73/31 58/74/31 56/75/31 54/76/31 52/77/31 50/78/31 48/79/31 46/80/31 44/81/31 42/82/31 40/83/31 38/84/31 36/85/31 34/86/31 32/87/31 30/88/31 28/89/31 26/90/31 24/91/31 22/92/31 20/93/31 18/94/31 16/95/31 14/96/31 12/97/31 10/98/31 8/99/31 6/100/31
f 61/68/32 62/67/32 64/101/32 63/102/32
f 63/103/33 64/104/33 2/2/33 1/1/33
f 1/105/34 3/106/34 5/107/34 7/108/34 9/109/34 11/110/34 13/111/34 15/112/34 17/113/34 19/114/34 21/115/34 23/116/34 25/117/34 27/118/34 29/119/34 31/120/34 33/121/34 35/122/34 37/123/34 39/124/34 41/125/34 43/126/34 45/127/34 47/128/34 49/129/34 51/130/34 53/131/34 55/132/34 57/133/34 59/134/34 61/135/34 63/136/34
f 65/137/1 66/138/1 68/139/1 67/140/1
f 67/140/2 68/139/2 70/141/2 69/142/2
f 69/142/3 70/141/3 72/143/3 71/144/3
f 71/144/4 72/143/4 74/145/4 73/146/4
f 73/146/5 74/145/5 76/147/5 75/148/5
f 75/148/6 76/147/6 78/149/6 77/150/6
f 77/150/7 78/149/7 80/151/7 79/152/7
f 79/153/8 80/154/8 82/155/8 81/156/8
f 81/156/9 82/155/9 84/157/9 83/158/9
f 83/158/10 84/157/10 86/159/10 85/160/10
f 85/160/11 86/159/11 88/161/11 87/162/11
f 87/162/12 88/161/12 90/163/12 89/164/12
f 89/164/13 90/163/13 92/165/13 91/166/13
f 91/166/14 92/165/14 94/167/14 93/168/14
f 93/168/15 94/167/15 96/169/15 95/170/15
f 95/171/16 96/172/16 98/173/16 97/174/16
f 97/174/17 98/173/17 100/175/17 99/176/17
f 99/176/18 100/175/18 102/177/18 101/178/18
f 101/178/19 102/177/19 104/179/19 103/180/19
f 103/180/20 104/179/20 106/181/20 105/182/20
f 105/182/21 106/181/21 108/183/21 107/184/21
f 107/184/22 108/183/22 110/185/22 109/186/22
f 109/186/23 110/185/23 112/187/23 111/188/23
f 111/188/24 112/187/24 114/189/24 113/190/24
f 113/191/25 114/192/25 116/193/25 115/194/25
f 115/194/26 116/193/26 118/195/26 117/196/26
f 117/196/27 118/195/27 120/197/27 119/198/27
f 119/198/28 120/197/28 122/199/28 121/200/28
f 121/200/29 122/199/29 124/201/29 123/202/29
f 123/202/30 124/201/30 126/203/30 125/204/30
f 68/205/31 66/206/31 128/207/31 126/208/31 124/209/31 122/210/31 120/211/31 118/212/31 116/213/31 114/214/31 112/215/31 110/216/31 108/217/31 106/218/31 104/219/31 102/220/31 100/221/31 98/222/31 96/223/31 94/224/31 92/225/31 90/226/31 88/227/31 86/228/31 84/229/31 82/230/31 80/231/31 78/232/31 76/233/31 74/234/31 72/235/31 70/236/31
f 125/204/32 126/203/32 128/237/32 127/238/32
f 127/239/33 128/240/33 66/138/33 65/137/33
f 65/241/34 67/242/34 69/243/34 71/244/34 73/245/34 75/246/34 77/247/34 79/248/34 81/249/34 83/250/34 85/251/34 87/252/34 89/253/34 91/254/34 93/255/34 95/256/34 97/257/34 99/258/34 101/259/34 103/260/34 105/261/34 107/262/34 109/263/34 111/264/34 113/265/34 115/266/34 117/267/34 119/268/34 121/269/34 123/270/34 125/271/34 127/272/34
