# Blender 4.3.0
# www.blender.org
mtllib Wall.mtl
o Wall
v -16.427687 -0.346355 2.003002
v -3.688274 5.824358 0.003002
v -3.688274 18.319479 0.003002
v 16.894051 -0.346355 2.003002
v 3.740055 5.824358 0.003002
v 3.740055 18.319479 0.003002
v -16.427687 25.685627 0.003002
v -16.427687 -0.346355 0.003002
v 16.894051 -0.346355 0.003002
v 16.894051 25.685627 0.003002
v -3.688274 12.071918 0.003002
v 3.740055 12.071918 0.003002
v 0.233181 -0.346355 0.003002
v 0.233181 -0.346355 2.003002
v 0.025890 5.824358 0.003002
v 0.025890 18.319479 0.003002
vn -0.0000 -1.0000 -0.0000
vn -0.0000 -0.0000 -1.0000
vt 0.250000 0.500000
vt 0.375000 0.500000
vt 0.375000 0.750000
vt 0.250000 0.750000
vt 0.603281 0.330476
vt 0.491837 0.330476
vt 0.380393 0.330476
vt -0.001855 0.109453
vt 0.997968 0.109454
vt 0.380393 0.705393
vt 0.491837 0.705393
vt 0.603281 0.705393
vt 0.997968 0.890547
vt 0.498057 0.890547
vt -0.001855 0.890547
vt 0.074793 0.018375
vt 0.061171 0.510682
vt 0.000088 0.508929
vt 0.014694 0.000088
vt 0.380393 0.517935
vt 0.603281 0.517935
s 0
usemtl Pillar
f 13/1/1 9/2/1 4/3/1 14/4/1
usemtl WoodPanel.001
f 6/5/2 16/6/2 3/7/2 7/8/2 10/9/2
f 2/10/2 15/11/2 5/12/2 9/13/2 13/14/2 8/15/2
f 8/16/1 13/17/1 14/18/1 1/19/1
f 3/7/2 11/20/2 2/10/2 8/15/2 7/8/2
f 5/12/2 12/21/2 6/5/2 10/9/2 9/13/2
