# Blender 4.2.3 LTS
# www.blender.org
mtllib TableSqr.mtl
o TableSqr
v -1.603943 -0.161078 -1.435346
v -1.603943 1.838922 -1.435346
v -1.603943 -0.161078 -1.639064
v -1.603943 1.838922 -1.639064
v -1.400224 -0.161078 -1.435346
v -1.400224 1.838922 -1.435346
v -1.400224 -0.161078 -1.639064
v -1.400224 1.838922 -1.639064
v 1.716053 2.050600 -1.716053
v 1.716053 1.724009 -1.716053
v 1.716053 2.050600 1.716053
v 1.716053 1.724009 1.716053
v -1.716053 2.050600 -1.716053
v -1.716053 1.724009 -1.716053
v -1.716053 2.050600 1.716053
v -1.716053 1.724009 1.716053
v 1.467680 -0.161078 1.586501
v 1.467680 1.838922 1.586501
v 1.467680 -0.161078 1.382783
v 1.467680 1.838922 1.382783
v 1.671398 -0.161078 1.586501
v 1.671398 1.838922 1.586501
v 1.671398 -0.161078 1.382783
v 1.671398 1.838922 1.382783
v -1.603943 -0.161078 1.663778
v -1.603943 1.838922 1.663778
v -1.603943 -0.161078 1.460059
v -1.603943 1.838922 1.460059
v -1.400224 -0.161078 1.663778
v -1.400224 1.838922 1.663778
v -1.400224 -0.161078 1.460059
v -1.400224 1.838922 1.460059
v 1.382123 -0.162676 -1.435346
v 1.382123 1.837324 -1.435346
v 1.382123 -0.162676 -1.639064
v 1.382123 1.837324 -1.639064
v 1.585841 -0.162676 -1.435346
v 1.585841 1.837324 -1.435346
v 1.585841 -0.162676 -1.639064
v 1.585841 1.837324 -1.639064
vn -1.0000 -0.0000 -0.0000
vn -0.0000 -0.0000 -1.0000
vn 1.0000 -0.0000 -0.0000
vn -0.0000 -0.0000 1.0000
vn -0.0000 -1.0000 -0.0000
vn -0.0000 1.0000 -0.0000
vt 0.375000 0.000000
vt 0.625000 0.000000
vt 0.625000 0.250000
vt 0.375000 0.250000
vt 0.625000 0.500000
vt 0.375000 0.500000
vt 0.625000 0.750000
vt 0.375000 0.750000
vt 0.625000 1.000000
vt 0.375000 1.000000
vt 0.125000 0.500000
vt 0.125000 0.750000
vt 0.875000 0.500000
vt 0.875000 0.750000
s 0
usemtl Material
f 1/1/1 2/2/1 4/3/1 3/4/1
f 3/4/2 4/3/2 8/5/2 7/6/2
f 7/6/3 8/5/3 6/7/3 5/8/3
f 5/8/4 6/7/4 2/9/4 1/10/4
f 3/11/5 7/6/5 5/8/5 1/12/5
f 9/5/6 13/13/6 15/14/6 11/7/6
f 12/8/4 11/7/4 15/9/4 16/10/4
f 16/1/1 15/2/1 13/3/1 14/4/1
f 14/11/5 10/6/5 12/8/5 16/12/5
f 10/6/3 9/5/3 11/7/3 12/8/3
f 14/4/2 13/3/2 9/5/2 10/6/2
f 17/1/1 18/2/1 20/3/1 19/4/1
f 19/4/2 20/3/2 24/5/2 23/6/2
f 23/6/3 24/5/3 22/7/3 21/8/3
f 21/8/4 22/7/4 18/9/4 17/10/4
f 19/11/5 23/6/5 21/8/5 17/12/5
f 25/1/1 26/2/1 28/3/1 27/4/1
f 27/4/2 28/3/2 32/5/2 31/6/2
f 31/6/3 32/5/3 30/7/3 29/8/3
f 29/8/4 30/7/4 26/9/4 25/10/4
f 27/11/5 31/6/5 29/8/5 25/12/5
f 33/1/1 34/2/1 36/3/1 35/4/1
f 35/4/2 36/3/2 40/5/2 39/6/2
f 39/6/3 40/5/3 38/7/3 37/8/3
f 37/8/4 38/7/4 34/9/4 33/10/4
f 35/11/5 39/6/5 37/8/5 33/12/5
